<?xml version="1.0" encoding="utf-8"?>
<!-- Generator: Adobe Illustrator 22.0.0, SVG Export Plug-In . SVG Version: 6.00 Build 0)  -->
<svg version="1.1" id="Layer_1" xmlns="http://www.w3.org/2000/svg" xmlns:xlink="http://www.w3.org/1999/xlink" x="0px" y="0px"
	 viewBox="0 0 55.9 29.6" style="enable-background:new 0 0 55.9 29.6;" xml:space="preserve">
<style type="text/css">
	.st0{fill:#414042;}
</style>
<g>
	<path class="st0" d="M37.6,8.7h17.3c0.6,0,1-0.5,1-1V1c0-0.6-0.5-1-1-1H37.6c-0.6,0-1,0.5-1,1v6.7C36.6,8.3,37.1,8.7,37.6,8.7z"/>
	<path class="st0" d="M16.3,8.7h17.3c0.6,0,1-0.5,1-1V1c0-0.6-0.5-1-1-1H16.3c-0.6,0-1,0.5-1,1v6.7C15.3,8.3,15.7,8.7,16.3,8.7z"/>
	<path class="st0" d="M1,8.7h11.4c0.6,0,1-0.5,1-1V1c0-0.6-0.5-1-1-1H1C0.5,0,0,0.5,0,1v6.7C0,8.3,0.5,8.7,1,8.7z"/>
	<path class="st0" d="M54.9,20.9H37.6c-0.6,0-1,0.5-1,1v6.7c0,0.6,0.5,1,1,1h17.3c0.6,0,1-0.5,1-1v-6.7
		C55.9,21.3,55.5,20.9,54.9,20.9z"/>
	<path class="st0" d="M33.6,20.9H16.3c-0.6,0-1,0.5-1,1v6.7c0,0.6,0.5,1,1,1h17.3c0.6,0,1-0.5,1-1v-6.7
		C34.6,21.3,34.2,20.9,33.6,20.9z"/>
	<path class="st0" d="M12.4,20.9H1c-0.6,0-1,0.5-1,1v6.7c0,0.6,0.5,1,1,1h11.4c0.6,0,1-0.5,1-1v-6.7C13.4,21.3,13,20.9,12.4,20.9z"
		/>
	<path class="st0" d="M18.3,19.2c0.6,0,1-0.5,1-1v-6.7c0-0.6-0.5-1-1-1H1c-0.6,0-1,0.5-1,1v6.7c0,0.6,0.5,1,1,1H18.3z"/>
	<path class="st0" d="M22.5,10.5c-0.6,0-1,0.5-1,1v6.7c0,0.6,0.5,1,1,1h17.3c0.6,0,1-0.5,1-1v-6.7c0-0.6-0.5-1-1-1H22.5z"/>
	<path class="st0" d="M54.9,10.5H43.5c-0.6,0-1,0.5-1,1v6.7c0,0.6,0.5,1,1,1h11.4c0.6,0,1-0.5,1-1v-6.7
		C55.9,10.9,55.5,10.5,54.9,10.5z"/>
</g>
</svg>
