<?xml version="1.0" encoding="utf-8"?>
<!-- Generator: Adobe Illustrator 22.0.0, SVG Export Plug-In . SVG Version: 6.00 Build 0)  -->
<svg version="1.1" id="Layer_1" xmlns="http://www.w3.org/2000/svg" xmlns:xlink="http://www.w3.org/1999/xlink" x="0px" y="0px"
	 viewBox="0 0 153.3 36.9" style="enable-background:new 0 0 153.3 36.9;" xml:space="preserve">
<style type="text/css">
	.st0{fill:#414042;}
</style>
<g>
	<path class="st0" d="M16.4,18.5c0-0.7,0.3-1,1-1h4.3v17.5h7.7V17.4h4.4c0.7,0,1,0.3,1,1v16.5h7.6V15.7c0-4.1-2-6.1-6-6.1H14.7
		c-4,0-6,2-6,6.1v19.3h7.7C16.4,34.9,16.4,18.5,16.4,18.5z"/>
	<path class="st0" d="M50.8,34.9h10.9c3.9,0,5.9-2,5.9-6V15.7c0-4.1-2-6.1-6-6.1H50.7c-4,0-6,2-6,6.1V29
		C44.7,32.9,46.7,34.9,50.8,34.9z M52.5,26v-7.5c0-0.7,0.3-1,1-1h5.4c0.7,0,1,0.3,1,1v7.6c0,0.7-0.3,1-1,1h-5.4
		C52.8,27.1,52.5,26.8,52.5,26z"/>
	<path class="st0" d="M75.8,34.9h16.8V2.3h-7.8v7.3h-9.2c-4,0-6,2-6,6.1V29C69.6,32.9,71.7,34.9,75.8,34.9z M77.4,26v-7.5
		c0-0.7,0.3-1,1-1h6.4v9.7h-6.4C77.7,27.1,77.4,26.8,77.4,26z"/>
	<path class="st0" d="M101,34.9h10.5c3.9,0,5.9-2,5.9-6V9.6h-7.7v16.5c0,0.7-0.3,1-1,1h-5c-0.7,0-1-0.4-1-1.1V9.6h-7.8V29
		C94.9,32.9,96.9,34.9,101,34.9z"/>
	<rect x="119.7" y="2.3" class="st0" width="7.8" height="32.7"/>
	<path class="st0" d="M135.9,9.6c-4.1,0-6.1,2-6.1,6.1v19.3h7.8V18.4c0-0.7,0.3-1,1-1h5.7V9.6C144.3,9.6,135.9,9.6,135.9,9.6z"/>
</g>
</svg>
