<svg id="Layer_1" data-name="Layer 1" xmlns="http://www.w3.org/2000/svg" viewBox="0 0 226.77 382.68"><defs><style>.cls-1{fill:#f04e63;}.cls-10,.cls-2,.cls-5{fill:#fff;}.cls-3{fill:#b4b4b4;}.cls-3,.cls-4,.cls-5,.cls-6{fill-rule:evenodd;}.cls-4{fill:#4e4e4e;}.cls-6{fill:#e03a2f;}.cls-7{fill:#512b7a;}.cls-8{fill:#fafbfb;}.cls-9{fill:#6dc9c5;}.cls-10{font-size:10.17px;font-family:Montserrat-SemiBold, Montserrat;font-weight:700;}.cls-11{font-size:6.78px;}.cls-12{fill:#cfebee;}.cls-13{fill:#98d7d9;}.cls-14{fill:none;stroke:#98d7d9;stroke-linecap:round;stroke-miterlimit:10;stroke-width:6.79px;}.cls-15{fill:#ffdc00;}</style></defs><title>tarifa</title><g id="Layer_5" data-name="Layer 5"><path class="cls-1" d="M24.14,49h-4.4v2.85h4.92v2.21H17v-12h7.37v2.22H19.74v2.49h4.4Z"/><path class="cls-1" d="M26.47,51.72a5.32,5.32,0,0,0,2.32.65c.81,0,1.16-.28,1.16-.72s-.27-.67-1.27-1c-1.81-.59-2.49-1.57-2.48-2.59,0-1.63,1.38-2.86,3.53-2.86a5.71,5.71,0,0,1,2.45.51l-.47,1.86a4.36,4.36,0,0,0-1.88-.49c-.66,0-1,.26-1,.7s.35.63,1.41,1c1.65.56,2.34,1.41,2.35,2.67,0,1.62-1.26,2.82-3.75,2.82A6.34,6.34,0,0,1,26,53.65Z"/><path class="cls-1" d="M37.2,42.91v2.48h1.95v2H37.2v3.14c0,1,.26,1.54,1.07,1.54a3.8,3.8,0,0,0,.8-.08l0,2.05a5.89,5.89,0,0,1-1.75.23,2.77,2.77,0,0,1-2-.76,3.56,3.56,0,0,1-.75-2.57V47.38H33.41v-2h1.15V43.52Z"/><path class="cls-1" d="M49.18,49.64a4.35,4.35,0,0,1-4.58,4.63,4.26,4.26,0,0,1-4.48-4.48,4.34,4.34,0,0,1,4.64-4.6A4.22,4.22,0,0,1,49.18,49.64Zm-6.28.09c0,1.48.63,2.61,1.78,2.61s1.72-1.06,1.72-2.62c0-1.28-.5-2.6-1.72-2.6S42.9,48.44,42.9,49.73Z"/><path class="cls-1" d="M50.83,51.72a5.28,5.28,0,0,0,2.32.65c.81,0,1.16-.28,1.16-.72S54,51,53,50.64c-1.8-.59-2.48-1.57-2.47-2.59,0-1.63,1.38-2.86,3.53-2.86a5.71,5.71,0,0,1,2.45.51l-.47,1.86a4.36,4.36,0,0,0-1.88-.49c-.66,0-1,.26-1,.7s.34.63,1.41,1c1.65.56,2.34,1.41,2.35,2.67,0,1.62-1.27,2.82-3.76,2.82a6.26,6.26,0,0,1-2.81-.61Z"/><path class="cls-1" d="M17.25,68.07V61.38H16.1v-2h1.15v-.33a4,4,0,0,1,1.09-2.91,3.51,3.51,0,0,1,2.41-.87,5.49,5.49,0,0,1,1.43.18l-.11,2.07a3,3,0,0,0-.87-.12c-.89,0-1.26.7-1.26,1.54v.44h1.73v2H20v6.69Z"/><path class="cls-1" d="M27.94,68.07l-.16-.86h-.06a3.11,3.11,0,0,1-2.48,1.06,2.65,2.65,0,0,1-2.8-2.66c0-2.26,2-3.34,5.09-3.33v-.11c0-.46-.24-1.12-1.59-1.12a5,5,0,0,0-2.39.65L23.05,60a7,7,0,0,1,3.38-.78c2.89,0,3.8,1.71,3.8,3.75v3a13,13,0,0,0,.14,2.1ZM27.61,64c-1.42,0-2.52.34-2.52,1.37a1,1,0,0,0,1.08,1,1.46,1.46,0,0,0,1.39-1,1.78,1.78,0,0,0,.05-.47Z"/><path class="cls-1" d="M38.89,67.85a6.25,6.25,0,0,1-2.42.41,4.22,4.22,0,0,1-4.59-4.45c0-2.54,1.73-4.61,5-4.61a6.26,6.26,0,0,1,2.06.34l-.42,2A3.53,3.53,0,0,0,37,61.27a2.25,2.25,0,0,0-2.33,2.43A2.27,2.27,0,0,0,37,66.15a4,4,0,0,0,1.55-.29Z"/><path class="cls-1" d="M43.66,56.91v2.48h2v2h-2v3.14c0,1,.26,1.54,1.07,1.54a3.72,3.72,0,0,0,.8-.08l0,2a5.84,5.84,0,0,1-1.75.23,2.77,2.77,0,0,1-2-.76A3.56,3.56,0,0,1,41,64.93V61.38H39.87v-2H41V57.52Z"/><path class="cls-1" d="M55.64,63.64a4.35,4.35,0,0,1-4.58,4.63,4.26,4.26,0,0,1-4.48-4.48,4.34,4.34,0,0,1,4.64-4.6A4.21,4.21,0,0,1,55.64,63.64Zm-6.28.09c0,1.48.63,2.61,1.78,2.61s1.72-1.06,1.72-2.62c0-1.28-.49-2.6-1.72-2.6S49.36,62.44,49.36,63.73Z"/><path class="cls-1" d="M57.3,62.25c0-1.28,0-2.12-.07-2.86h2.32l.1,1.6h.07a2.53,2.53,0,0,1,2.34-1.8,2.56,2.56,0,0,1,.58.05v2.54a3.68,3.68,0,0,0-.73-.07,1.73,1.73,0,0,0-1.85,1.37,2.74,2.74,0,0,0-.05.6v4.39H57.3Z"/><path class="cls-1" d="M66,64.6c.08,1.12,1.19,1.65,2.45,1.65a7.14,7.14,0,0,0,2.39-.37l.36,1.83a8.35,8.35,0,0,1-3.15.55c-2.94,0-4.63-1.72-4.63-4.42a4.36,4.36,0,0,1,4.38-4.65c2.82,0,3.88,2.19,3.88,4.34a5,5,0,0,1-.1,1.07Zm3.17-1.85A1.57,1.57,0,0,0,67.63,61,1.78,1.78,0,0,0,66,62.75Z"/><path class="cls-1" d="M73.25,65.72a5.28,5.28,0,0,0,2.32.65c.81,0,1.16-.28,1.16-.72s-.28-.67-1.28-1c-1.8-.59-2.48-1.57-2.47-2.59,0-1.63,1.38-2.86,3.53-2.86A5.71,5.71,0,0,1,79,59.7l-.47,1.86a4.36,4.36,0,0,0-1.88-.49c-.66,0-1,.26-1,.7s.34.63,1.41,1c1.65.56,2.34,1.41,2.35,2.67,0,1.62-1.27,2.82-3.76,2.82a6.26,6.26,0,0,1-2.81-.61Z"/><path class="cls-1" d="M21.88,82.07l-.16-.86h0a3.14,3.14,0,0,1-2.48,1.06,2.65,2.65,0,0,1-2.81-2.66c0-2.26,2-3.34,5.1-3.33v-.11c0-.46-.25-1.12-1.6-1.12a5,5,0,0,0-2.39.65L17,74a7,7,0,0,1,3.38-.78c2.89,0,3.81,1.71,3.81,3.75v3a13.15,13.15,0,0,0,.13,2.1ZM21.56,78C20.14,78,19,78.3,19,79.33a1,1,0,0,0,1.07,1,1.48,1.48,0,0,0,1.4-1,1.78,1.78,0,0,0,0-.47Z"/><path class="cls-1" d="M34.5,79.29c0,1.13,0,2.06.07,2.78H32.22l-.12-1.22H32a3.09,3.09,0,0,1-2.7,1.42c-1.77,0-3.05-1.11-3.05-3.78v-5.1H29v4.66c0,1.28.41,2,1.36,2a1.44,1.44,0,0,0,1.34-1,1.47,1.47,0,0,0,.1-.58V73.39H34.5Z"/><path class="cls-1" d="M36.66,76.16c0-1.08,0-2-.07-2.77h2.28L39,74.56h.06a3,3,0,0,1,2.62-1.37A2.44,2.44,0,0,1,44,74.68h0a3.76,3.76,0,0,1,1.13-1.06,3.12,3.12,0,0,1,1.65-.43c1.66,0,2.92,1.17,2.92,3.77v5.11H47.15V77.36c0-1.26-.4-2-1.27-2a1.33,1.33,0,0,0-1.25.94,2.54,2.54,0,0,0-.09.68v5.08H41.91V77.2c0-1.09-.39-1.83-1.25-1.83a1.38,1.38,0,0,0-1.27,1,1.93,1.93,0,0,0-.1.68v5H36.66Z"/><path class="cls-1" d="M54,78.6c.08,1.12,1.19,1.65,2.45,1.65a7.14,7.14,0,0,0,2.39-.37l.36,1.83a8.34,8.34,0,0,1-3.14.55c-3,0-4.64-1.72-4.64-4.42a4.36,4.36,0,0,1,4.38-4.65c2.82,0,3.88,2.19,3.88,4.34a5,5,0,0,1-.1,1.07Zm3.17-1.85A1.56,1.56,0,0,0,55.66,75,1.79,1.79,0,0,0,54,76.75Z"/><path class="cls-1" d="M61.28,76.16c0-1.08,0-2-.07-2.77h2.34l.13,1.2h.06a3.13,3.13,0,0,1,2.68-1.4c1.77,0,3.11,1.18,3.11,3.74v5.14h-2.7V77.26c0-1.12-.4-1.89-1.38-1.89a1.47,1.47,0,0,0-1.37,1,1.94,1.94,0,0,0-.09.67v5H61.28Z"/><path class="cls-1" d="M74.58,70.91v2.48h1.94v2H74.58v3.14c0,1,.26,1.54,1.06,1.54a3.91,3.91,0,0,0,.81-.08l0,2a5.94,5.94,0,0,1-1.75.23,2.79,2.79,0,0,1-2-.76,3.56,3.56,0,0,1-.74-2.57V75.38H70.78v-2h1.16V71.52Z"/><path class="cls-1" d="M83,82.07l-.16-.86H82.8a3.11,3.11,0,0,1-2.48,1.06,2.65,2.65,0,0,1-2.81-2.66c0-2.26,2-3.34,5.1-3.33v-.11c0-.46-.25-1.12-1.59-1.12a5,5,0,0,0-2.39.65L78.13,74a7,7,0,0,1,3.38-.78c2.89,0,3.8,1.71,3.8,3.75v3a13,13,0,0,0,.14,2.1ZM82.69,78c-1.42,0-2.52.34-2.52,1.37a1,1,0,0,0,1.08,1,1.47,1.47,0,0,0,1.39-1,1.78,1.78,0,0,0,0-.47Z"/><path class="cls-1" d="M87.45,76.16c0-1.08,0-2-.07-2.77h2.34l.13,1.2h.05a3.16,3.16,0,0,1,2.69-1.4c1.77,0,3.11,1.18,3.11,3.74v5.14H93V77.26c0-1.12-.4-1.89-1.37-1.89a1.47,1.47,0,0,0-1.37,1,1.94,1.94,0,0,0-.09.67v5H87.45Z"/><path class="cls-1" d="M19,92.6c.08,1.12,1.19,1.65,2.45,1.65a7.14,7.14,0,0,0,2.39-.37l.36,1.83a8.3,8.3,0,0,1-3.14.55c-2.95,0-4.63-1.72-4.63-4.42a4.36,4.36,0,0,1,4.37-4.65c2.82,0,3.88,2.19,3.88,4.34a6,6,0,0,1-.09,1.07Zm3.17-1.85A1.56,1.56,0,0,0,20.68,89,1.79,1.79,0,0,0,19,90.75Z"/><path class="cls-1" d="M26.3,83.47H29v12.6H26.3Z"/><path class="cls-1" d="M41.28,95.85a6.29,6.29,0,0,1-2.42.41c-2.81,0-4.6-1.72-4.6-4.45,0-2.54,1.74-4.61,5-4.61a6.31,6.31,0,0,1,2.06.34l-.42,2a3.57,3.57,0,0,0-1.51-.28A2.25,2.25,0,0,0,37,91.7a2.27,2.27,0,0,0,2.37,2.45A4,4,0,0,0,41,93.86Z"/><path class="cls-1" d="M51.13,91.64a4.35,4.35,0,0,1-4.58,4.63,4.26,4.26,0,0,1-4.49-4.48,4.34,4.34,0,0,1,4.65-4.6A4.22,4.22,0,0,1,51.13,91.64Zm-6.28.09c0,1.48.62,2.61,1.77,2.61s1.72-1.06,1.72-2.62c0-1.28-.49-2.6-1.71-2.6S44.85,90.44,44.85,91.73Z"/><path class="cls-1" d="M52.78,93.72a5.27,5.27,0,0,0,2.31.65c.82,0,1.17-.28,1.17-.72S56,93,55,92.64c-1.8-.59-2.48-1.57-2.47-2.59,0-1.63,1.37-2.86,3.53-2.86a5.7,5.7,0,0,1,2.44.51L58,89.56a4.32,4.32,0,0,0-1.88-.49c-.66,0-1,.26-1,.7s.34.63,1.4,1c1.65.56,2.34,1.41,2.35,2.67,0,1.62-1.26,2.82-3.75,2.82a6.26,6.26,0,0,1-2.81-.61Z"/><path class="cls-1" d="M63.5,84.91v2.48h2v2h-2v3.14c0,1,.27,1.54,1.07,1.54a3.72,3.72,0,0,0,.8-.08l0,2a5.94,5.94,0,0,1-1.75.23,2.78,2.78,0,0,1-2-.76,3.56,3.56,0,0,1-.75-2.57V89.38H59.71v-2h1.15V85.52Z"/><path class="cls-1" d="M75.48,91.64a4.34,4.34,0,0,1-4.57,4.63,4.26,4.26,0,0,1-4.49-4.48,4.34,4.34,0,0,1,4.64-4.6A4.21,4.21,0,0,1,75.48,91.64Zm-6.28.09c0,1.48.63,2.61,1.78,2.61s1.72-1.06,1.72-2.62c0-1.28-.49-2.6-1.72-2.6S69.2,90.44,69.2,91.73Z"/><g id="Distancia"><path class="cls-2" d="M113.05,21.15a24.84,24.84,0,0,1,4-.32c2.69,0,4.62.64,5.89,1.83A6.63,6.63,0,0,1,125,27.87a7.72,7.72,0,0,1-2.09,5.66c-1.37,1.36-3.62,2.1-6.44,2.1a30.19,30.19,0,0,1-3.42-.16ZM114.94,34a12.89,12.89,0,0,0,1.89.09c4,0,6.19-2.23,6.19-6.17,0-3.44-1.92-5.6-5.88-5.6a11.35,11.35,0,0,0-2.2.19Z"/><path class="cls-2" d="M129,22.11a1.18,1.18,0,1,1-2.36,0,1.16,1.16,0,0,1,1.19-1.18A1.14,1.14,0,0,1,129,22.11ZM126.88,35.5V25.06h1.89V35.5Z"/><path class="cls-2" d="M131.12,33.57a5.24,5.24,0,0,0,2.51.74c1.39,0,2-.68,2-1.55s-.55-1.4-1.94-1.92c-1.88-.68-2.78-1.71-2.77-3,0-1.68,1.36-3.06,3.61-3.06a5.12,5.12,0,0,1,2.56.64l-.47,1.38a4.17,4.17,0,0,0-2.15-.61c-1.12,0-1.73.65-1.73,1.43s.62,1.25,2,1.78c1.8.67,2.73,1.58,2.74,3.14,0,1.85-1.44,3.15-3.91,3.15a6,6,0,0,1-2.93-.73Z"/><path class="cls-2" d="M141.69,22.05v3h2.72V26.5h-2.72v5.63c0,1.3.37,2,1.43,2a3.67,3.67,0,0,0,1.1-.14l.09,1.45a5,5,0,0,1-1.7.26,2.65,2.65,0,0,1-2.05-.81,4,4,0,0,1-.73-2.72V26.5h-1.62V25.06h1.62V22.54Z"/><path class="cls-2" d="M151.81,35.5l-.17-1.32h0a3.89,3.89,0,0,1-3.2,1.56,3,3,0,0,1-3.19-3c0-2.53,2.24-3.92,6.28-3.89v-.22a2.15,2.15,0,0,0-2.38-2.41,5.07,5.07,0,0,0-2.72.78L146,25.74a6.54,6.54,0,0,1,3.45-.92c3.19,0,4,2.18,4,4.28V33a17.41,17.41,0,0,0,.15,2.5Zm-.29-5.33c-2.06,0-4.41.32-4.41,2.34a1.67,1.67,0,0,0,1.77,1.82,2.62,2.62,0,0,0,2.55-1.75,2.12,2.12,0,0,0,.09-.59Z"/><path class="cls-2" d="M155.9,27.88c0-1.09,0-2-.09-2.82h1.68l.11,1.72h.05a3.86,3.86,0,0,1,3.45-2c1.44,0,3.68.86,3.68,4.45V35.5h-1.89v-6c0-1.69-.64-3.1-2.41-3.1a2.72,2.72,0,0,0-2.56,1.95,2.91,2.91,0,0,0-.13.88V35.5H155.9Z"/><path class="cls-2" d="M174.79,35.12a7.1,7.1,0,0,1-3,.61,5,5,0,0,1-5.21-5.34,5.31,5.31,0,0,1,5.61-5.56,6.17,6.17,0,0,1,2.64.55l-.42,1.46a4.56,4.56,0,0,0-2.22-.5,3.61,3.61,0,0,0-3.68,3.95,3.58,3.58,0,0,0,3.63,3.91,5.58,5.58,0,0,0,2.33-.5Z"/><path class="cls-2" d="M178.59,22.11a1.18,1.18,0,1,1-2.35,0,1.15,1.15,0,0,1,1.18-1.18A1.13,1.13,0,0,1,178.59,22.11ZM176.47,35.5V25.06h1.89V35.5Z"/><path class="cls-2" d="M186.77,35.5l-.17-1.32h0a3.89,3.89,0,0,1-3.2,1.56,3,3,0,0,1-3.19-3c0-2.53,2.24-3.92,6.28-3.89v-.22a2.15,2.15,0,0,0-2.38-2.41,5.07,5.07,0,0,0-2.72.78l-.43-1.26a6.54,6.54,0,0,1,3.45-.92c3.19,0,4,2.18,4,4.28V33a17.41,17.41,0,0,0,.15,2.5Zm-.29-5.33c-2.06,0-4.41.32-4.41,2.34a1.67,1.67,0,0,0,1.77,1.82,2.62,2.62,0,0,0,2.55-1.75,2.12,2.12,0,0,0,.09-.59Z"/><path class="cls-2" d="M129.06,128.44c14.49,12,60.82-7.31,72.84-21.82a34.09,34.09,0,1,0-52.48-43.53C137.4,77.59,114.57,116.42,129.06,128.44Z"/><path id="_Path_" data-name="&lt;Path&gt;" class="cls-3" d="M188.54,81.86c.24,6.73-53.6,14.38-52.95,36.89a27.69,27.69,0,0,0,8.78,19.94h55.82c-17.25-6.09-38.74-11.48-39.37-21-.65-9.79,42-25.32,41.27-35.49,0-.56.06-3.25,0-3.78-3-15-65-13.35-65.14-19.57,0-1.88,6.83-4.15,12.07-7,3.3-1.78,5.93-3.87,5.83-5.92a6.54,6.54,0,0,0-.21-1.81c-.67-1.16-2.3-2.13-4.43-2.94h-5c4.74,1.79,7.39,3.22,7.41,5.21.05,3.85-21.23,6.83-24,13.07,0,0,.13,1.52.1,2C128.21,69.42,188.32,75.85,188.54,81.86Z"/><path id="_Path_2" data-name="&lt;Path&gt;" class="cls-4" d="M187.67,80.13c.13,6.73-52.78,15.13-52.13,37.64.21,7.34,4.87,14.55,11,20.92h59.33c-17.93-6.5-45-17.71-45.27-24.24-.36-8.16,41.68-21.46,41.51-35.18-.2-16.47-65.18-14.93-65.32-21.34-.07-3.11,18.2-6.11,17.89-13.27-.06-1.35-1.52-2.47-3.71-3.4h-4.61c3.33,1.08,5.79,2.29,5.81,3.49.06,4.11-23.43,8-23.58,14.79C128.37,69.52,187.55,73.71,187.67,80.13Z"/><path id="_Path_3" data-name="&lt;Path&gt;" class="cls-5" d="M148.59,115.78c1.31-13.59,32.7-24,42.87-30.95,1.86-1.28,4.47-3.49,4-6.06-2-11.56-63.35-11.93-63.48-20.23a2.74,2.74,0,0,1,1-1.95c3.17-3.09,21.3-8,20.08-12.17-.35-1.18-2.28-2.24-4.81-3.16h.07c2.42.86,4.53,2,4.83,3.2.84,3.46-11.36,7.7-16.38,10.1-1.49.72-4.65,2.2-4.64,4,0,7.7,61.74,8.1,63.94,20.12.53,2.89-1.9,5.08-4,6.53-6.07,4.17-14.56,7.88-21.18,11.37-6.78,3.58-20.18,10.63-21,19.22-.77,8,15.16,18.63,21.25,22.92h-5.48C160.12,134,147.8,124,148.59,115.78Z"/><path id="_Compound_Path_" data-name="&lt;Compound Path&gt;" class="cls-6" d="M165.59,56.52c-1.75,0-3.16,1.44-3.16,3.64s3.16,6.78,3.16,6.78,3.16-4.58,3.16-6.78S167.33,56.52,165.59,56.52Zm0,5.21a1.9,1.9,0,1,1,1.9-1.9A1.9,1.9,0,0,1,165.59,61.73Z"/><path id="_Compound_Path_2" data-name="&lt;Compound Path&gt;" class="cls-6" d="M142.15,100.51c-2.24,0-4.06,1.84-4.06,4.67s4.06,8.7,4.06,8.7,4-5.88,4-8.7S144.38,100.51,142.15,100.51Zm0,6.69a2.44,2.44,0,1,1,2.44-2.44A2.44,2.44,0,0,1,142.15,107.2Z"/></g><g id="Tiempo"><path class="cls-2" d="M102.15,189.16c-10.36-12.85-75.21-6.25-88.07,4.12s6.78,31.13,17.14,44a29.89,29.89,0,0,0,42,4.51C86.12,231.41,112.51,202,102.15,189.16Z"/><path class="cls-2" d="M69.64,160.11h-4.3v-1.54H75.8v1.54H71.47V172.7H69.64Z"/><path class="cls-2" d="M78.42,159.69a1.15,1.15,0,1,1-2.29,0,1.13,1.13,0,0,1,1.15-1.15A1.11,1.11,0,0,1,78.42,159.69Zm-2.06,13V162.56h1.83V172.7Z"/><path class="cls-2" d="M81.77,168a3.24,3.24,0,0,0,3.47,3.52,6.74,6.74,0,0,0,2.81-.52l.32,1.31a8.08,8.08,0,0,1-3.38.65c-3.12,0-5-2.08-5-5.12s1.81-5.47,4.77-5.47c3.31,0,4.17,2.9,4.17,4.77a4.62,4.62,0,0,1-.06.86Zm5.4-1.33c0-1.16-.48-3-2.55-3-1.88,0-2.68,1.7-2.83,3Z"/><path class="cls-2" d="M90.72,165.3c0-1.06,0-1.9-.08-2.74h1.6l.1,1.63h0a3.5,3.5,0,0,1,3.2-1.86,3,3,0,0,1,2.86,2h0A4.05,4.05,0,0,1,99.63,163a3.48,3.48,0,0,1,2.23-.71c1.36,0,3.35.87,3.35,4.4v6h-1.8V167c0-2-.72-3.12-2.2-3.12A2.39,2.39,0,0,0,99,165.5a2.91,2.91,0,0,0-.15.92v6.28h-1.8v-6.09c0-1.61-.72-2.77-2.11-2.77a2.55,2.55,0,0,0-2.3,1.84,2.94,2.94,0,0,0-.14.91v6.11h-1.8Z"/><path class="cls-2" d="M107.69,165.86c0-1.29,0-2.34-.09-3.3h1.65l.1,1.73h0a4,4,0,0,1,3.6-2c2.46,0,4.31,2.07,4.31,5.14,0,3.66-2.24,5.46-4.61,5.46a3.55,3.55,0,0,1-3.13-1.6h0v5.52h-1.83Zm1.83,2.71a3.67,3.67,0,0,0,.08.75,2.83,2.83,0,0,0,2.76,2.16c2,0,3.08-1.6,3.08-3.92,0-2-1.06-3.77-3-3.77a2.93,2.93,0,0,0-2.79,2.28,3.26,3.26,0,0,0-.12.75Z"/><path class="cls-2" d="M128.3,167.53c0,3.76-2.6,5.4-5,5.4-2.75,0-4.87-2-4.87-5.22,0-3.4,2.23-5.38,5-5.38S128.3,164.44,128.3,167.53Zm-8,.12c0,2.22,1.27,3.9,3.07,3.9s3.09-1.65,3.09-4c0-1.71-.87-3.88-3.06-3.88S120.27,165.73,120.27,167.65Z"/><path class="cls-7" d="M87.28,223.8a31.72,31.72,0,1,1-31.72-31.72A31.71,31.71,0,0,1,87.28,223.8Z"/><circle class="cls-8" cx="55.56" cy="223.8" r="25.63" transform="translate(-12.14 3.37) rotate(-3.13)"/><path class="cls-7" d="M55.94,201.3c-.28,0-.84-.23-.84-.51v-8.12c0-.28.56-.51.84-.51s.84.23.84.51v8.12C56.78,201.07,56.22,201.3,55.94,201.3Z"/><path class="cls-7" d="M55.94,255.09c-.28,0-.84-.23-.84-.51v-8.11c0-.29.56-.51.84-.51s.84.22.84.51v8.11C56.78,254.86,56.22,255.09,55.94,255.09Z"/><path class="cls-7" d="M86.49,224.32H78.37c-.28,0-.5-.56-.5-.84s.22-.84.5-.84h8.12c.28,0,.51.56.51.84S86.77,224.32,86.49,224.32Z"/><path class="cls-7" d="M32.7,224.32H24.58c-.28,0-.51-.56-.51-.84s.23-.84.51-.84H32.7c.28,0,.51.56.51.84S33,224.32,32.7,224.32Z"/><path class="cls-7" d="M42.65,203.18a.51.51,0,0,1-.44-.24L39,197.67a.51.51,0,0,1,.86-.54l3.27,5.28a.51.51,0,0,1-.17.7A.48.48,0,0,1,42.65,203.18Z"/><path class="cls-7" d="M72,250.55a.51.51,0,0,1-.43-.24L68.27,245a.51.51,0,0,1,.16-.7.51.51,0,0,1,.7.17l3.27,5.27a.51.51,0,0,1-.17.7A.5.5,0,0,1,72,250.55Z"/><path class="cls-7" d="M76.72,211.2a.51.51,0,0,1-.27-.94L81.73,207a.51.51,0,0,1,.53.87L77,211.12A.47.47,0,0,1,76.72,211.2Z"/><path class="cls-7" d="M29.35,240.52a.5.5,0,0,1-.43-.24.51.51,0,0,1,.17-.7l5.27-3.26a.51.51,0,1,1,.54.86l-5.28,3.26A.45.45,0,0,1,29.35,240.52Z"/><path class="cls-7" d="M34.06,212.16a.5.5,0,0,1-.24-.06l-5.42-3a.5.5,0,1,1,.49-.88l5.42,3a.51.51,0,0,1-.25.95Z"/><path class="cls-7" d="M82.7,239.32a.47.47,0,0,1-.25-.07l-5.41-3a.5.5,0,0,1-.2-.69.51.51,0,0,1,.69-.2l5.42,3a.51.51,0,0,1-.25.95Z"/><path class="cls-7" d="M67.74,202.62a.47.47,0,0,1-.25-.07.5.5,0,0,1-.19-.69l3-5.42a.51.51,0,0,1,.89.5l-3,5.42A.51.51,0,0,1,67.74,202.62Z"/><path class="cls-7" d="M40.58,251.26a.42.42,0,0,1-.24-.07.5.5,0,0,1-.2-.69l3-5.42a.51.51,0,0,1,.88.5L41,251A.54.54,0,0,1,40.58,251.26Z"/><path class="cls-7" d="M50.82,199.62a.16.16,0,0,1-.16-.14l-1.22-6.08a.17.17,0,0,1,.13-.2.17.17,0,0,1,.2.13L51,199.42a.17.17,0,0,1-.13.2Z"/><path class="cls-7" d="M61.74,254.25a.18.18,0,0,1-.17-.14L60.36,248a.17.17,0,0,1,.13-.2.19.19,0,0,1,.2.14L61.91,254a.18.18,0,0,1-.14.2Z"/><path class="cls-7" d="M79.94,219a.18.18,0,0,1-.16-.14.17.17,0,0,1,.13-.2L86,217.49a.18.18,0,0,1,.2.13.18.18,0,0,1-.14.2L80,219Z"/><path class="cls-7" d="M25.32,230a.18.18,0,0,1-.17-.14.17.17,0,0,1,.13-.2l6.09-1.22a.18.18,0,0,1,.2.14.17.17,0,0,1-.13.2L25.35,230Z"/><path class="cls-7" d="M48.5,200.2a.17.17,0,0,1-.16-.12l-1.8-5.94a.17.17,0,0,1,.32-.1l1.8,5.94a.16.16,0,0,1-.11.21Z"/><path class="cls-7" d="M64.65,253.52a.17.17,0,0,1-.16-.12l-1.8-5.94a.16.16,0,0,1,.11-.21.16.16,0,0,1,.21.11l1.8,5.94a.16.16,0,0,1-.11.21Z"/><path class="cls-7" d="M79.36,216.71a.16.16,0,0,1-.16-.12.16.16,0,0,1,.11-.21l5.94-1.8a.17.17,0,0,1,.21.12.17.17,0,0,1-.11.21l-5.94,1.8Z"/><path class="cls-7" d="M26.05,232.86a.15.15,0,0,1-.16-.12.16.16,0,0,1,.11-.21l5.94-1.8a.18.18,0,0,1,.21.12.16.16,0,0,1-.11.21l-5.94,1.8Z"/><path class="cls-7" d="M53.24,199.26a.17.17,0,0,1-.17-.15l-.61-6.18a.17.17,0,1,1,.34,0l.61,6.17a.17.17,0,0,1-.15.19Z"/><path class="cls-7" d="M58.72,255.33c-.09,0-.16-.39-.17-.47l-.61-6.34c0-.09.06-.25.15-.26s.18,0,.19.11l.61,6.47c0,.1-.06.49-.15.49Z"/><path class="cls-7" d="M80.3,221.45a.16.16,0,0,1-.16-.15.16.16,0,0,1,.15-.18l6.17-.61a.16.16,0,0,1,.19.15.17.17,0,0,1-.15.18l-6.18.61Z"/><path class="cls-7" d="M24.87,226.83c-.09,0-.16,0-.17-.1a.15.15,0,0,1,.15-.16L31,226a.18.18,0,0,1,.18.16c0,.1-.06.13-.15.14l-6.18.56Z"/><path class="cls-7" d="M44.23,201.94a.16.16,0,0,1-.15-.09l-2.87-5.5a.18.18,0,0,1,.07-.23.17.17,0,0,1,.23.07l2.87,5.51a.16.16,0,0,1-.07.22A.12.12,0,0,1,44.23,201.94Z"/><path class="cls-7" d="M70,251.34a.16.16,0,0,1-.15-.09L67,245.74a.16.16,0,0,1,.07-.22.17.17,0,0,1,.23.07l2.87,5.5a.17.17,0,0,1-.08.23Z"/><path class="cls-7" d="M77.62,212.45a.19.19,0,0,1-.15-.09.17.17,0,0,1,.07-.23l5.5-2.87a.16.16,0,0,1,.23.07.17.17,0,0,1-.07.23l-5.5,2.87Z"/><path class="cls-7" d="M28.22,238.2a.14.14,0,0,1-.14-.09.16.16,0,0,1,.07-.23l5.5-2.87a.18.18,0,0,1,.23.07.17.17,0,0,1-.07.23l-5.51,2.87Z"/><path class="cls-7" d="M46.28,201a.18.18,0,0,1-.16-.1l-2.36-5.74a.19.19,0,0,1,.1-.23.18.18,0,0,1,.22.1l2.35,5.74a.16.16,0,0,1-.09.22Z"/><path class="cls-7" d="M67.43,252.53a.17.17,0,0,1-.16-.11l-2.36-5.74a.17.17,0,0,1,.32-.13l2.35,5.74a.16.16,0,0,1-.09.22Z"/><path class="cls-7" d="M78.57,214.49a.18.18,0,0,1-.16-.1.17.17,0,0,1,.1-.22l5.74-2.36a.17.17,0,0,1,.13.31l-5.74,2.36Z"/><path class="cls-7" d="M27,235.64a.18.18,0,0,1-.16-.1.17.17,0,0,1,.09-.22L32.71,233a.17.17,0,0,1,.22.09.16.16,0,0,1-.09.22l-5.74,2.36Z"/><path class="cls-7" d="M64.31,200.69h-.06a.17.17,0,0,1-.1-.21l2.17-5.82a.17.17,0,0,1,.22-.1.18.18,0,0,1,.1.22l-2.17,5.81A.16.16,0,0,1,64.31,200.69Z"/><path class="cls-7" d="M44.87,252.9h-.06a.17.17,0,0,1-.1-.22l2.17-5.82a.16.16,0,0,1,.21-.09.16.16,0,0,1,.1.21L45,252.79A.17.17,0,0,1,44.87,252.9Z"/><path class="cls-7" d="M84.68,234.69h-.06l-5.81-2.16a.17.17,0,1,1,.12-.32l5.81,2.17a.16.16,0,0,1-.06.32Z"/><path class="cls-7" d="M32.48,215.25h-.06l-5.82-2.17a.17.17,0,0,1,.12-.31l5.82,2.16a.17.17,0,0,1,.1.22A.17.17,0,0,1,32.48,215.25Z"/><path class="cls-7" d="M62,200H62a.16.16,0,0,1-.12-.2l1.6-6a.16.16,0,0,1,.32.08l-1.59,6A.17.17,0,0,1,62,200Z"/><path class="cls-7" d="M47.73,253.81h0a.16.16,0,0,1-.12-.2l1.6-6a.16.16,0,0,1,.32.08l-1.59,6A.17.17,0,0,1,47.73,253.81Z"/><path class="cls-7" d="M85.59,231.84h0l-6-1.59a.17.17,0,0,1,.09-.33l6,1.59a.18.18,0,0,1,.12.21A.17.17,0,0,1,85.59,231.84Z"/><path class="cls-7" d="M31.75,217.53h0l-6-1.59a.17.17,0,1,1,.09-.33l6,1.59a.18.18,0,0,1,.12.21A.16.16,0,0,1,31.75,217.53Z"/><path class="cls-7" d="M66.12,201.45h-.07a.17.17,0,0,1-.08-.23l2.62-5.63a.17.17,0,1,1,.3.15l-2.62,5.62A.15.15,0,0,1,66.12,201.45Z"/><path class="cls-7" d="M42.61,252h-.07a.17.17,0,0,1-.09-.23l2.62-5.62a.17.17,0,0,1,.23-.09.18.18,0,0,1,.08.23l-2.62,5.62A.16.16,0,0,1,42.61,252Z"/><path class="cls-7" d="M83.74,237h-.07L78,234.32a.17.17,0,0,1-.08-.22.16.16,0,0,1,.22-.09l5.63,2.62a.18.18,0,0,1,.08.23A.16.16,0,0,1,83.74,237Z"/><path class="cls-7" d="M33.24,213.44h-.07l-5.63-2.62a.17.17,0,0,1,.14-.31l5.63,2.62a.17.17,0,0,1,.08.22A.16.16,0,0,1,33.24,213.44Z"/><path class="cls-7" d="M57.48,199.18h0a.17.17,0,0,1-.16-.17l.46-6.18a.18.18,0,0,1,.18-.16.19.19,0,0,1,.16.19L57.65,199A.16.16,0,0,1,57.48,199.18Z"/><path class="cls-7" d="M53.41,255.33h0c-.1,0-.17-.37-.16-.47l.46-6.33c0-.09.08-.23.18-.22s.16.05.15.14l-.45,6.45C53.57,255,53.5,255.33,53.41,255.33Z"/><path class="cls-7" d="M86.55,226.83h0L80.35,226c-.1,0-.17-.26-.16-.35s.1-.25.18-.24l6.19.41c.09,0,.16.4.16.5S86.64,226.83,86.55,226.83Z"/><path class="cls-7" d="M31,221.8h0l-6.19-.31c-.09,0-.17,0-.16-.11s.09-.13.18-.13l6.19.47c.1,0,.17,0,.16.06S31.08,221.8,31,221.8Z"/><path class="cls-7" d="M59.72,199.47h0a.16.16,0,0,1-.13-.19l1-6.13a.18.18,0,0,1,.2-.14.17.17,0,0,1,.13.2l-1,6.12A.17.17,0,0,1,59.72,199.47Z"/><path class="cls-7" d="M50.61,254.43h0a.19.19,0,0,1-.14-.2l1-6.12a.16.16,0,0,1,.19-.14.17.17,0,0,1,.14.19l-1,6.13A.18.18,0,0,1,50.61,254.43Z"/><path class="cls-7" d="M86.21,229h0l-6.12-1a.19.19,0,0,1-.14-.2.18.18,0,0,1,.2-.14l6.12,1a.16.16,0,0,1,.14.19A.17.17,0,0,1,86.21,229Z"/><path class="cls-7" d="M31.26,219.84h0l-6.12-1a.16.16,0,0,1-.14-.19.16.16,0,0,1,.19-.14l6.13,1a.17.17,0,0,1,.13.2A.16.16,0,0,1,31.26,219.84Z"/><path class="cls-7" d="M74.32,207.61a.16.16,0,0,1-.13-.06.17.17,0,0,1,0-.24l4.68-4.08a.16.16,0,0,1,.24,0,.16.16,0,0,1,0,.23l-4.67,4.09A.21.21,0,0,1,74.32,207.61Z"/><path class="cls-7" d="M32.36,244.25a.16.16,0,0,1-.13-.06.17.17,0,0,1,0-.24l4.67-4.08a.17.17,0,0,1,.22.26l-4.67,4.08A.15.15,0,0,1,32.36,244.25Z"/><path class="cls-7" d="M76,247.2a.15.15,0,0,1-.13,0l-4.08-4.68a.17.17,0,1,1,.25-.22l4.08,4.67a.16.16,0,0,1,0,.24A.15.15,0,0,1,76,247.2Z"/><path class="cls-7" d="M39.39,205.25a.16.16,0,0,1-.12-.06l-4.09-4.68a.16.16,0,0,1,0-.23.16.16,0,0,1,.24,0L39.52,205a.17.17,0,0,1,0,.24A.21.21,0,0,1,39.39,205.25Z"/><path class="cls-7" d="M72.65,205.88a.15.15,0,0,1-.11,0,.17.17,0,0,1,0-.24l4.26-4.52a.17.17,0,1,1,.24.23l-4.25,4.52A.21.21,0,0,1,72.65,205.88Z"/><path class="cls-7" d="M34.44,246.41a.17.17,0,0,1-.12,0,.17.17,0,0,1,0-.24l4.26-4.52a.17.17,0,1,1,.25.23l-4.26,4.52A.18.18,0,0,1,34.44,246.41Z"/><path class="cls-7" d="M78.2,245.12a.17.17,0,0,1-.12,0l-4.51-4.26a.16.16,0,0,1,0-.24.17.17,0,0,1,.24,0l4.51,4.25a.17.17,0,0,1,0,.24A.15.15,0,0,1,78.2,245.12Z"/><path class="cls-7" d="M37.67,206.91a.17.17,0,0,1-.12,0L33,202.61a.17.17,0,0,1,.24-.25l4.51,4.26a.17.17,0,0,1,0,.24A.18.18,0,0,1,37.67,206.91Z"/><path class="cls-7" d="M75.65,209.28a.15.15,0,0,1-.13-.07.17.17,0,0,1,0-.24l5-3.66a.17.17,0,0,1,.24,0,.16.16,0,0,1,0,.23l-5,3.67A.17.17,0,0,1,75.65,209.28Z"/><path class="cls-7" d="M30.69,242.16a.15.15,0,0,1-.14-.07.17.17,0,0,1,0-.24l5-3.66a.16.16,0,0,1,.23,0,.17.17,0,0,1,0,.24l-5,3.66A.19.19,0,0,1,30.69,242.16Z"/><path class="cls-7" d="M74,248.88a.17.17,0,0,1-.14-.07l-3.66-5a.17.17,0,0,1,0-.24.17.17,0,0,1,.24,0l3.66,5a.16.16,0,0,1,0,.23A.14.14,0,0,1,74,248.88Z"/><path class="cls-7" d="M41.06,203.91a.15.15,0,0,1-.13-.07l-3.67-5a.17.17,0,1,1,.28-.2l3.66,5a.17.17,0,0,1,0,.24A.17.17,0,0,1,41.06,203.91Z"/><path class="cls-7" d="M69.23,203.18l-.09,0a.16.16,0,0,1,0-.23l3.4-5.19a.17.17,0,0,1,.28.18l-3.4,5.19A.17.17,0,0,1,69.23,203.18Z"/><path class="cls-7" d="M38.72,249.79a.14.14,0,0,1-.09,0,.16.16,0,0,1-.05-.23l3.4-5.19a.17.17,0,0,1,.28.18l-3.4,5.19A.17.17,0,0,1,38.72,249.79Z"/><path class="cls-7" d="M81.57,240.84l-.09,0-5.19-3.4a.18.18,0,0,1-.05-.24.17.17,0,0,1,.23-.05l5.2,3.4a.18.18,0,0,1,0,.24A.18.18,0,0,1,81.57,240.84Z"/><path class="cls-7" d="M35,210.33l-.1,0-5.19-3.4a.17.17,0,0,1,.19-.29l5.19,3.4a.17.17,0,0,1-.09.31Z"/><path class="cls-7" d="M70.86,204.35a.14.14,0,0,1-.1,0,.16.16,0,0,1,0-.24l3.81-4.9a.17.17,0,0,1,.23,0,.17.17,0,0,1,0,.24l-3.8,4.9A.21.21,0,0,1,70.86,204.35Z"/><path class="cls-7" d="M36.68,248.33a.2.2,0,0,1-.11,0,.18.18,0,0,1,0-.24l3.81-4.9a.17.17,0,0,1,.24,0,.17.17,0,0,1,0,.24l-3.81,4.9A.16.16,0,0,1,36.68,248.33Z"/><path class="cls-7" d="M80.12,242.89a.21.21,0,0,1-.11,0L75.11,239a.17.17,0,0,1,0-.24.18.18,0,0,1,.24,0l4.9,3.81a.17.17,0,0,1,0,.24A.17.17,0,0,1,80.12,242.89Z"/><path class="cls-7" d="M36.13,208.7a.14.14,0,0,1-.1,0l-4.9-3.8a.17.17,0,0,1,0-.24.17.17,0,0,1,.24,0l4.9,3.81a.18.18,0,0,1,0,.24A.2.2,0,0,1,36.13,208.7Z"/><path class="cls-9" d="M55.94,203.5a20.21,20.21,0,1,1,0,40.42Z"/><path class="cls-7" d="M66.57,223.71a11.08,11.08,0,1,1-11.08-11.08A11.08,11.08,0,0,1,66.57,223.71Z"/><rect class="cls-7" x="54.28" y="186.22" width="2.74" height="5.22"/><rect class="cls-7" x="53.88" y="182.8" width="3.54" height="6.96" transform="translate(241.93 130.63) rotate(90)"/><rect class="cls-7" x="77.97" y="197.3" width="2.74" height="5.22" transform="translate(155.45 -1.25) rotate(42.37)"/><rect class="cls-7" x="79.29" y="194.54" width="3.54" height="6.96" transform="translate(281.98 271.58) rotate(132.37)"/><path class="cls-7" d="M55.78,175.27a9.1,9.1,0,1,0,9.1,9.09A9.09,9.09,0,0,0,55.78,175.27Zm0,16a6.89,6.89,0,1,1,6.89-6.89A6.88,6.88,0,0,1,55.78,191.25Z"/><text class="cls-10" transform="translate(48.81 224.25)">30<tspan class="cls-11"><tspan x="-0.49" y="5.93">min</tspan></tspan></text></g><g id="Tarifa"><path class="cls-2" d="M145.76,265.8a9.54,9.54,0,0,1-3.94.71c-4.2,0-7.35-2.66-7.35-7.55a7.4,7.4,0,0,1,7.78-7.83,7.94,7.94,0,0,1,3.54.66l-.47,1.57a7,7,0,0,0-3-.62c-3.5,0-5.82,2.24-5.82,6.16,0,3.64,2.1,6,5.72,6a7.68,7.68,0,0,0,3.15-.62Z"/><path class="cls-2" d="M147.51,250.57h1.94v15.71h-1.94Z"/><path class="cls-2" d="M154.34,252.55a1.21,1.21,0,1,1-1.2-1.21A1.16,1.16,0,0,1,154.34,252.55Zm-2.17,13.73v-10.7h1.93v10.7Z"/><path class="cls-2" d="M156.79,258.47c0-1.12,0-2-.09-2.89h1.69l.1,1.72h.06a3.68,3.68,0,0,1,3.38-2,3.15,3.15,0,0,1,3,2.15H165a4.27,4.27,0,0,1,1.2-1.39,3.65,3.65,0,0,1,2.36-.76c1.43,0,3.53.93,3.53,4.65v6.3h-1.9v-6c0-2.08-.76-3.3-2.32-3.3a2.55,2.55,0,0,0-2.32,1.75,3.28,3.28,0,0,0-.16,1v6.63h-1.9v-6.42c0-1.71-.75-2.93-2.22-2.93a2.7,2.7,0,0,0-2.43,1.94,3.22,3.22,0,0,0-.14,1v6.45h-1.9Z"/><path class="cls-2" d="M180.63,266.28l-.17-1.35h-.06a4,4,0,0,1-3.28,1.59,3,3,0,0,1-3.26-3.07c0-2.59,2.29-4,6.43-4v-.22a2.21,2.21,0,0,0-2.44-2.47,5.24,5.24,0,0,0-2.79.8l-.44-1.3a6.75,6.75,0,0,1,3.53-.94c3.27,0,4.07,2.24,4.07,4.38v4a16.81,16.81,0,0,0,.16,2.56Zm-.3-5.47c-2.11,0-4.52.34-4.52,2.41a1.71,1.71,0,0,0,1.82,1.86,2.68,2.68,0,0,0,2.6-1.79,2,2,0,0,0,.1-.61Z"/><path class="cls-2" d="M160.66,273.18A37.67,37.67,0,1,1,123,310.85,37.68,37.68,0,0,1,160.66,273.18Z"/><path class="cls-12" d="M209.82,309.24a18.45,18.45,0,0,0-18.45-18.44h-.22a25.61,25.61,0,0,0-48.58,10.46c-.36,0-.73-.05-1.1-.05a13.24,13.24,0,1,0,0,26.48h52.29v-.16A18.45,18.45,0,0,0,209.82,309.24Z"/><path class="cls-13" d="M207.59,311.45a16.23,16.23,0,0,0-16.23-16.23h-.21a22.53,22.53,0,0,0-42.74,9.2c-.32,0-.64,0-1,0a11.65,11.65,0,0,0,0,23.3h46v-.14A16.24,16.24,0,0,0,207.59,311.45Z"/><line class="cls-14" x1="144.66" y1="337.93" x2="142.38" y2="346.46"/><line class="cls-14" x1="155.09" y1="332.81" x2="152.81" y2="341.34"/><line class="cls-14" x1="163.48" y1="337.93" x2="161.19" y2="346.46"/><line class="cls-14" x1="173.91" y1="332.81" x2="171.62" y2="341.34"/><line class="cls-14" x1="192.72" y1="332.81" x2="190.43" y2="341.34"/><line class="cls-14" x1="140.57" y1="354.18" x2="138.28" y2="362.71"/><line class="cls-14" x1="151" y1="349.06" x2="148.71" y2="357.59"/><line class="cls-14" x1="159.38" y1="354.18" x2="157.09" y2="362.71"/><line class="cls-14" x1="169.81" y1="349.06" x2="167.52" y2="357.59"/><line class="cls-14" x1="188.62" y1="349.06" x2="186.34" y2="357.59"/><polygon class="cls-15" points="183.13 334.92 187.86 322.2 189.85 316.98 182.33 316.98 181.51 320.21 177.41 336.35 176.54 339.77 179.73 339.51 183.47 339.2 177.5 364.2 187.77 337.64 188.65 335.38 185.94 335.16 183.13 334.92"/></g></g></svg>