<?xml version="1.0" encoding="utf-8"?>
<!-- Generator: Adobe Illustrator 16.0.4, SVG Export Plug-In . SVG Version: 6.00 Build 0)  -->
<!DOCTYPE svg PUBLIC "-//W3C//DTD SVG 1.1//EN" "http://www.w3.org/Graphics/SVG/1.1/DTD/svg11.dtd">
<svg version="1.1" id="Layer_1" xmlns="http://www.w3.org/2000/svg" xmlns:xlink="http://www.w3.org/1999/xlink" x="0px" y="0px"
	 width="188.667px" height="179.865px" viewBox="0 0 188.667 179.865" enable-background="new 0 0 188.667 179.865"
	 xml:space="preserve">
<g>
	<path fill="#FFFFFF" d="M187.231,80.466c-0.429,5.038-0.83,9.801-1.059,14.33c-0.069,1.421-0.123,3.134-0.186,5.12
		c-0.505,16.136-1.45,46.175-15.553,52.338c-5.146,2.26-10.732,3.358-17.071,3.358c-10.684,0-21.59-3.145-32.141-6.185
		c-5.941-1.71-11.554-3.328-16.939-4.347c-0.1-0.021-0.196-0.044-0.291-0.071c-4.535,12.648-9.893,23.499-15.934,32.283
		c-1.134,1.658-2.729,2.572-4.489,2.572c-2.595,0-4.926-2.003-5.669-4.869c-2.011-7.743-2.436-15.879-2.847-23.745l-0.108-2.081
		c-0.108-2.037-0.442-4.347-0.795-6.798c-0.22-1.521-0.447-3.08-0.625-4.634c-5.723-1.05-12.54-1.212-19.757-1.384
		c-16.05-0.382-34.245-0.815-45.092-11.777C-4.486,111.311,0.459,72.398,3.41,49.153c0.56-4.394,1.042-8.187,1.324-11.163
		c0.132-1.378,0.242-2.997,0.362-4.709C5.949,20.833,7.376,0,22.696,0h0.133c32.703,0.256,66.091,2.432,98.379,4.535
		c5.786,0.376,11.568,0.754,17.338,1.119c0.808,0.052,1.646,0.101,2.508,0.153c13.906,0.831,34.92,2.087,42.222,18.23
		C190.645,40.258,188.83,61.62,187.231,80.466z"/>
	<linearGradient id="SVGID_1_" gradientUnits="userSpaceOnUse" x1="35.5044" y1="14.7231" x2="185.1441" y2="159.239">
		<stop  offset="0" style="stop-color:#EF374B"/>
		<stop  offset="0.2108" style="stop-color:#EB374D"/>
		<stop  offset="0.351" style="stop-color:#E3364F"/>
		<stop  offset="0.4706" style="stop-color:#D83554"/>
		<stop  offset="0.5787" style="stop-color:#C8335A"/>
		<stop  offset="0.6791" style="stop-color:#B43261"/>
		<stop  offset="0.7737" style="stop-color:#9C3069"/>
		<stop  offset="0.8639" style="stop-color:#802E72"/>
		<stop  offset="0.9483" style="stop-color:#602D7C"/>
		<stop  offset="1" style="stop-color:#472C83"/>
	</linearGradient>
	<path fill="url(#SVGID_1_)" d="M107.472,50.235c0.06,0.006,0.114,0.02,0.16,0.038c-0.414,2.388-1.968,5.16-4.621,8.245
		c-2.569,3.011-4.936,4.803-7.033,5.341c0.471-1.321,1.49-3.148,3.04-5.439c1.895-2.757,3.745-4.955,5.506-6.528
		c1.564-1.375,2.412-1.662,2.851-1.662C107.406,50.231,107.44,50.232,107.472,50.235z M91.983,92.845
		c0.065-0.2,0.124-0.399,0.168-0.603c0.21-0.957,0.157-1.87-0.156-2.713c-0.419-1.138-1.208-1.902-2.414-2.337
		c-0.151-0.054-0.297-0.096-0.434-0.127c-0.755-0.168-1.392,0.009-1.947,0.542c-0.604,0.571-1.044,1.476-1.312,2.684
		c-0.592,2.687-0.341,4.709,0.747,6.012c0.153,0.031,0.307,0.055,0.457,0.071l0,0c1.066,0.12,2.008-0.123,2.881-0.738
		C90.916,94.983,91.593,94.044,91.983,92.845z M187.231,80.466c-0.429,5.038-0.83,9.801-1.059,14.33
		c-0.069,1.421-0.123,3.134-0.186,5.12c-0.505,16.136-1.45,46.175-15.553,52.338c-5.146,2.26-10.732,3.358-17.071,3.358
		c-10.684,0-21.59-3.145-32.141-6.185c-5.941-1.71-11.554-3.328-16.939-4.347c-0.1-0.021-0.196-0.044-0.291-0.071
		c-4.535,12.648-9.893,23.499-15.934,32.283c-1.134,1.658-2.729,2.572-4.489,2.572c-2.595,0-4.926-2.003-5.669-4.869
		c-2.011-7.743-2.436-15.879-2.847-23.745l-0.108-2.081c-0.108-2.037-0.442-4.347-0.795-6.798c-0.22-1.521-0.447-3.08-0.625-4.634
		c-5.723-1.05-12.54-1.212-19.757-1.384c-16.05-0.382-34.245-0.815-45.092-11.777C-4.486,111.311,0.459,72.398,3.41,49.153
		c0.56-4.394,1.042-8.187,1.324-11.163c0.132-1.378,0.242-2.997,0.362-4.709C5.949,20.833,7.376,0,22.696,0h0.133
		c32.703,0.256,66.091,2.432,98.379,4.535c5.786,0.376,11.568,0.754,17.338,1.119c0.808,0.052,1.646,0.101,2.508,0.153
		c13.906,0.831,34.92,2.087,42.222,18.23C190.645,40.258,188.83,61.62,187.231,80.466z M127.806,63.094
		c2.611,8.652,6.999,14.146,13.046,16.329c0.594,0.215,1.212,0.403,1.837,0.557c0.652,0.159,1.327,0.285,2.043,0.38
		c3.848,0.038,8.152-1.209,12.787-3.708c4.772-2.596,1.149-9.215-3.468-6.601c-3.337,1.914-6.303,2.723-8.808,2.4
		c-0.59-0.082-1.148-0.215-1.66-0.399c-1.772-0.64-3.096-1.973-3.929-3.954c-0.474-1.14-0.495-1.691-0.437-1.929l0.022-0.061
		c0.034-0.087,0.133-0.357,0.708-0.438c0.204-0.016,0.83-0.021,1.852-0.016c0.942,0.009,1.74-0.065,2.361-0.218
		c3.793-0.894,6.315-3.014,7.503-6.302c0.4-1.103,0.651-2.367,0.757-3.805c-0.334-3.271-1.213-5.991-2.608-8.085
		c-1.242-1.868-2.86-3.17-4.808-3.874c-0.71-0.256-1.472-0.435-2.263-0.532c-5.769-0.745-9.668,0.667-11.585,4.203
		c-1.035,1.911-1.873,3.744-2.489,5.449C127.2,56.552,126.909,60.12,127.806,63.094z M103.388,37.604
		c0.455,0.488,0.964,0.765,1.51,0.823c0.076,0.007,0.154,0.012,0.23,0.012c0.451,0,0.842-0.154,1.158-0.459
		c2.815-1.792,2.661-1.851,7.154-6.12c0.156-0.155,0.482-0.416,0.967-0.778c1.156-0.875,1.93-1.587,2.363-2.182
		c0.365-0.51,0.574-1.021,0.629-1.521c0.064-0.588-0.077-1.171-0.418-1.73c-0.269-0.446-0.545-0.814-0.813-1.094
		c-0.504-0.521-1.058-0.82-1.649-0.882c-0.622-0.067-1.516,0.223-2.736,0.896l-0.118,0.079c-2.662,1.596-4.89,3.215-6.972,5.417
		l-0.133,0.151c-1.51,1.627-2.32,2.974-2.478,4.12l-0.014,0.098C101.957,35.505,102.397,36.572,103.388,37.604z M30.779,27.604
		c0.696,0.076,1.458,0.126,2.258,0.152c1.138,0.043,2.923,0.044,5.305,0.004c1.72-0.024,2.92-0.002,3.522,0.061l0.118,0.014
		c1.976,0.259,2.771,0.41,3.065,0.486c1.093,0.32,1.476,0.67,1.461,0.804c-0.712,5.769-1.28,10.606-1.685,14.38
		c-0.173,1.658-0.314,3.049-0.421,4.248c-0.815,8.725-1.086,15.733-0.806,20.825c0.199,4.056,0.245,4.253,0.27,4.353
		c0.492,2.825,1.881,3.555,2.966,3.671l0.209,0.021c0.181,0.007,0.361,0.011,0.533,0.011c2.139,0,3.696-0.579,4.646-1.728
		c0.766-0.957,1.255-2.426,1.462-4.367l0.074-0.706c0.043-0.578,0.074-1.454,0.098-2.62c-0.003-1.288,0.031-1.89,0.065-2.191
		c0.18-2.245,0.589-8.671,1.214-19.101v-0.047V45.84c0-0.09,0.012-0.661,0.15-4.023c0.074-1.965,0.174-3.641,0.295-4.963
		l0.025-0.231c0.508-4.75,1.479-6.762,2.205-7.614c0.003-0.001,0.319-0.316,1.845-0.316c0.524,0,1.141,0.038,1.832,0.111
		c0.448,0.048,1.415,0.181,2.88,0.394c0.554,0.081,1.011,0.14,1.369,0.177c0.391,0.042,0.671,0.061,0.925,0.061
		c0.001,0,0.004,0,0.004,0c3.028-0.074,5.292-0.261,6.725-0.554c2.954-0.585,5.123-1.768,6.444-3.516
		c0.442-0.578,0.699-1.179,0.764-1.785c0.125-1.187-0.45-2.301-1.708-3.313c-1.332-1.076-2.752-1.701-4.243-1.862
		c-3.635-0.29-9.621-0.504-17.795-0.636c-7.599-0.134-13.531-0.395-17.622-0.775c-3.472-0.33-6.673-0.261-9.46,0.206
		c-3.872,0.671-5.96,2.16-6.201,4.419c-0.098,0.903,0.111,1.884,0.624,2.919C25.021,26.217,27.175,27.22,30.779,27.604z
		 M73.533,110.327l-0.016-0.053c-0.56-1.521-1.315-4.374-2.253-8.471c-1.09-4.758-1.969-8.243-2.604-10.358
		c-2.538-8.441-5.996-13.132-10.278-13.947l-0.084-0.016l-0.079,0.033c-2.056,0.876-3.762,3.506-5.213,8.044
		c-1.588,4.989-2.653,8.216-3.174,9.632c-0.25-0.992-0.769-3.17-1.833-7.849c-1.029-4.513-2.234-7.151-3.68-8.068
		c-1.019-0.64-2.012-0.978-2.948-1.003c-1.13-0.037-2.212,0.375-3.224,1.219c-0.521,0.448-1.29,1.26-2.283,2.407
		c-0.965,1.133-3.245,2.725-5.12,6.559c-2.523,5.162-4.486,15.769-4.57,18.621c-0.054,1.877-0.119,2.58-0.164,2.843l-0.016,0.508
		c1.275,1.027,2.488,1.563,3.612,1.596c0.816,0.024,1.604-0.224,2.342-0.739c1.305-0.925,2.547-2.884,3.686-5.821
		c3.865-9.818,4.915-12.571,5.197-13.388c0.23,0.212,0.624,0.884,0.979,2.996c0.021,0.188,0.143,1.165,0.966,7.195
		c0.959,7.112,2.492,10.604,4.692,10.669l0.077,0.003c2.675-0.04,5.121-2.693,7.428-8.111c0.721-1.675,1.5-3.821,2.311-6.38
		c0.756-2.385,1.143-3.611,1.344-4.254c0.752,1.551,1.532,4.028,2.32,7.386c0.852,3.713,1.84,6.428,2.938,8.065
		c1.011,1.51,2.761,2.661,5.203,3.418c0.644,0.201,1.226,0.307,1.729,0.324c0.139,0.003,0.273,0,0.4-0.009
		c1.019-0.083,2.249-0.665,2.316-3V110.327z M81.516,50.264c3.354-3.563,7.4-6.266,12.027-8.034l0.108-0.042l0.052-0.104
		c0.122-0.279,0.202-0.552,0.23-0.82c0.113-1.038-0.388-2.083-1.484-3.106c-1.197-1.1-2.443-1.725-3.707-1.859l-0.063-0.007
		c-3.475-0.372-7.335,1.309-11.457,4.996c-3.098,2.776-5.352,5.574-6.707,8.341c0.001-4.698-1.046-7.893-3.126-9.51
		c-0.506-0.386-1.038-0.611-1.587-0.669c-0.503-0.055-1.017,0.05-1.541,0.314c-1.033,0.582-1.87,1.774-2.488,3.538l-0.013,0.064
		c-0.459,4.297-0.434,8.827,0.076,13.465c0.625,5.841,1.958,9.946,3.958,12.203c0.845,0.942,1.68,1.464,2.483,1.55
		c0.08,0.01,0.162,0.013,0.243,0.013c1.772,0,3.294-1.996,4.646-6.102C75.011,58.951,77.82,54.163,81.516,50.264z M104.411,104.704
		c-3.064,2.326-5.899,3.51-8.425,3.513c-0.595-0.003-1.167-0.062-1.699-0.182c-1.841-0.406-3.322-1.556-4.405-3.414
		c-0.617-1.07-0.708-1.615-0.678-1.855l0.012-0.063c0.021-0.094,0.085-0.373,0.647-0.525c0.202-0.04,0.818-0.127,1.835-0.254
		c0.934-0.111,1.713-0.285,2.311-0.52c3.647-1.378,5.877-3.804,6.631-7.219c0.254-1.145,0.342-2.429,0.26-3.871
		c-0.755-3.197-1.976-5.784-3.628-7.68c-1.471-1.692-3.245-2.776-5.265-3.222c-0.739-0.164-1.519-0.244-2.313-0.238
		c-5.819,0.006-9.502,1.909-10.949,5.662c-0.781,2.027-1.377,3.954-1.767,5.722c-0.934,4.218-0.763,7.792,0.511,10.625
		c3.704,8.244,8.761,13.128,15.039,14.515c0.619,0.137,1.254,0.242,1.897,0.313c0.667,0.075,1.351,0.114,2.072,0.117
		c3.823-0.457,7.929-2.251,12.207-5.326C113.1,107.612,108.653,101.516,104.411,104.704z M118.151,76.599
		c0.21,0.024,0.42,0.032,0.629,0.032c1.093,0,2.18-0.308,3.236-0.916c1.288-0.733,2.11-1.664,2.449-2.819
		c0.159-1.479-0.429-3.364-1.795-5.767c-0.691-1.19-1.139-2.081-1.328-2.645c-0.434-1.332-0.79-3.521-1.055-6.506
		c-0.078-0.923-0.136-1.492-0.175-1.725c-0.025-0.212-0.049-0.809-0.063-2.441c-0.07-3.827-0.285-6.688-0.642-8.499
		c-0.619-3.331-1.829-5.116-3.603-5.305l-0.325-0.035c-4.109-0.442-10.566,2.179-19.262,7.833
		c-6.979,6.46-10.78,12.232-11.309,17.175c-0.132,2.492,0.433,4.565,1.683,6.162c1.274,1.606,3.071,2.543,5.343,2.784
		c0.773,0.084,1.596,0.082,2.452-0.006c2.917-0.308,5.865-1.763,8.771-4.326c1.669-1.484,3.896-3.983,6.619-7.418l0.759-0.946
		c0.647,1.21,1.241,3.188,1.77,5.896c0.793,3.915,1.85,6.647,3.143,8.125C116.14,76.029,117.048,76.483,118.151,76.599z
		 M128.894,110.093c0.043-1.462-0.495-2.763-1.605-3.873c-1.234-1.186-2.899-1.818-4.979-1.878
		c-1.692,0.073-3.094,0.636-4.147,1.695c-0.917,0.931-1.448,2.058-1.576,3.373l-0.009,0.326c-0.03,1.093,0.227,2.114,0.771,3.047
		c0.703,1.146,1.719,1.873,3.026,2.164c0.637,0.131,1.276,0.206,1.9,0.223c0.375,0.012,0.743,0.003,1.09-0.023
		c1.459-0.113,2.688-0.563,3.66-1.34C128.222,112.857,128.85,111.608,128.894,110.093z M146.689,110.229
		c0.046-1.464-0.496-2.765-1.609-3.873c-1.23-1.188-2.896-1.82-4.974-1.88c-1.686,0.071-3.096,0.636-4.149,1.697
		c-0.916,0.929-1.446,2.059-1.575,3.371l-0.011,0.326c-0.027,1.093,0.229,2.114,0.773,3.045c0.702,1.147,1.718,1.876,3.027,2.167
		c0.635,0.129,1.275,0.205,1.898,0.223c0.376,0.011,0.744,0.003,1.093-0.025c1.455-0.112,2.687-0.562,3.657-1.339
		C146.017,112.99,146.647,111.742,146.689,110.229z M164.27,107.54c0.042-1.464-0.497-2.766-1.608-3.875
		c-1.229-1.188-2.899-1.819-4.979-1.879c-1.69,0.071-3.094,0.632-4.146,1.696c-0.918,0.93-1.447,2.06-1.578,3.371l-0.009,0.327
		c-0.03,1.093,0.227,2.115,0.773,3.044c0.7,1.146,1.717,1.877,3.026,2.168c0.637,0.131,1.275,0.203,1.897,0.221
		c0.378,0.012,0.745,0.006,1.091-0.023c1.458-0.111,2.691-0.562,3.661-1.339C163.595,110.303,164.226,109.053,164.27,107.54z
		 M137.947,59.563L137.947,59.563c1.041,0.253,2.009,0.136,2.956-0.364c1.019-0.527,1.808-1.37,2.353-2.508
		c0.089-0.191,0.169-0.382,0.242-0.578c0.331-0.922,0.397-1.834,0.194-2.71c-0.268-1.182-0.953-2.042-2.092-2.627
		c-0.144-0.074-0.283-0.134-0.415-0.183c-0.728-0.264-1.383-0.171-2.003,0.287c-0.67,0.49-1.223,1.328-1.645,2.495
		c-0.934,2.586-0.947,4.625-0.034,6.057C137.652,59.481,137.802,59.525,137.947,59.563z"/>
</g>
</svg>
