<?xml version="1.0" encoding="utf-8"?>
<!-- Generator: Adobe Illustrator 16.0.4, SVG Export Plug-In . SVG Version: 6.00 Build 0)  -->
<!DOCTYPE svg PUBLIC "-//W3C//DTD SVG 1.1//EN" "http://www.w3.org/Graphics/SVG/1.1/DTD/svg11.dtd">
<svg version="1.1" id="Layer_1" xmlns="http://www.w3.org/2000/svg" xmlns:xlink="http://www.w3.org/1999/xlink" x="0px" y="0px"
	 width="68.334px" height="58.667px" viewBox="0 0 68.334 58.667" enable-background="new 0 0 68.334 58.667" xml:space="preserve">
<path fill="#FFFFFF" d="M38.396,16.558c0.018,0.003,0.036,0.005,0.05,0.013c-0.133,0.768-0.634,1.66-1.487,2.653
	c-0.828,0.968-1.588,1.545-2.263,1.719c0.15-0.425,0.479-1.014,0.979-1.751c0.608-0.887,1.205-1.595,1.771-2.101
	c0.503-0.441,0.777-0.534,0.917-0.534C38.375,16.557,38.386,16.557,38.396,16.558z M33.411,30.271
	c0.021-0.064,0.039-0.128,0.054-0.194c0.067-0.308,0.051-0.601-0.05-0.873c-0.135-0.367-0.389-0.612-0.776-0.752
	c-0.049-0.017-0.096-0.03-0.14-0.041c-0.243-0.055-0.449,0.002-0.627,0.174c-0.193,0.184-0.335,0.476-0.421,0.864
	c-0.191,0.865-0.11,1.517,0.24,1.935c0.05,0.011,0.099,0.02,0.147,0.024l0,0c0.343,0.038,0.647-0.04,0.928-0.238
	C33.068,30.96,33.285,30.657,33.411,30.271z M64.065,26.288c-0.138,1.623-0.268,3.154-0.341,4.612
	c-0.021,0.457-0.039,1.009-0.06,1.646c-0.162,5.195-0.467,14.862-5.004,16.847c-1.657,0.727-3.455,1.079-5.495,1.079
	c-3.438,0-6.947-1.01-10.344-1.989c-1.912-0.551-3.717-1.071-5.451-1.398c-0.032-0.008-0.063-0.016-0.093-0.023
	c-1.46,4.07-3.184,7.562-5.13,10.39c-0.364,0.532-0.877,0.827-1.444,0.827c-0.835,0-1.585-0.645-1.825-1.565
	c-0.646-2.492-0.783-5.111-0.916-7.644l-0.036-0.67c-0.034-0.655-0.142-1.398-0.256-2.188c-0.071-0.49-0.144-0.991-0.201-1.491
	c-1.841-0.338-4.035-0.39-6.357-0.444c-5.167-0.124-11.023-0.263-14.513-3.791c-4.235-4.27-2.644-16.793-1.694-24.275
	c0.18-1.414,0.334-2.634,0.426-3.592c0.042-0.444,0.078-0.964,0.117-1.517c0.274-4.006,0.734-10.71,5.665-10.71h0.043
	C21.68,0.473,32.425,1.173,42.816,1.85c1.863,0.122,3.723,0.243,5.581,0.36c0.261,0.017,0.529,0.033,0.807,0.05
	c4.475,0.267,11.239,0.672,13.588,5.867C65.164,13.347,64.58,20.223,64.065,26.288z M44.94,20.696
	c0.84,2.785,2.253,4.554,4.198,5.257c0.192,0.068,0.391,0.129,0.591,0.179c0.211,0.051,0.427,0.091,0.659,0.122
	c1.238,0.013,2.623-0.388,4.115-1.193c1.535-0.836,0.369-2.966-1.118-2.125c-1.073,0.616-2.028,0.876-2.833,0.772
	c-0.19-0.026-0.37-0.068-0.535-0.128c-0.57-0.207-0.996-0.635-1.263-1.273c-0.153-0.367-0.159-0.544-0.141-0.62l0.007-0.021
	c0.011-0.028,0.042-0.115,0.228-0.141c0.066-0.005,0.267-0.006,0.597-0.005c0.302,0.004,0.56-0.02,0.76-0.07
	c1.221-0.288,2.033-0.971,2.414-2.029c0.129-0.354,0.21-0.761,0.245-1.224c-0.108-1.052-0.391-1.927-0.84-2.603
	c-0.4-0.601-0.921-1.02-1.548-1.246c-0.228-0.082-0.474-0.141-0.729-0.171c-1.856-0.24-3.111,0.214-3.728,1.353
	c-0.333,0.614-0.604,1.204-0.802,1.753C44.745,18.591,44.652,19.739,44.94,20.696z M37.081,12.493
	c0.146,0.156,0.31,0.246,0.486,0.264c0.025,0.003,0.049,0.004,0.074,0.004c0.146,0,0.271-0.049,0.373-0.147
	c0.906-0.576,0.857-0.595,2.303-1.971c0.051-0.049,0.155-0.133,0.311-0.25c0.371-0.281,0.621-0.511,0.761-0.702
	c0.116-0.165,0.185-0.329,0.201-0.49c0.021-0.189-0.025-0.376-0.134-0.556c-0.087-0.144-0.175-0.263-0.262-0.353
	c-0.162-0.168-0.34-0.264-0.53-0.284c-0.201-0.022-0.488,0.072-0.88,0.289l-0.04,0.025c-0.855,0.514-1.572,1.035-2.243,1.744
	l-0.044,0.049c-0.486,0.524-0.746,0.957-0.796,1.326l-0.004,0.032C36.621,11.817,36.763,12.161,37.081,12.493z M13.713,9.274
	c0.224,0.025,0.469,0.041,0.727,0.05c0.366,0.013,0.94,0.013,1.707,0c0.554-0.007,0.94,0,1.134,0.021l0.038,0.003
	c0.636,0.083,0.892,0.133,0.986,0.156c0.352,0.104,0.475,0.216,0.47,0.259c-0.23,1.856-0.412,3.413-0.542,4.627
	c-0.057,0.534-0.102,0.981-0.136,1.368c-0.263,2.808-0.349,5.062-0.259,6.702c0.062,1.306,0.078,1.369,0.086,1.4
	c0.159,0.91,0.606,1.145,0.955,1.182l0.067,0.006c0.058,0.002,0.117,0.003,0.172,0.003c0.688,0,1.19-0.185,1.495-0.556
	c0.246-0.307,0.403-0.78,0.471-1.406l0.023-0.227c0.014-0.185,0.024-0.467,0.032-0.842c-0.001-0.415,0.01-0.608,0.021-0.706
	c0.058-0.722,0.19-2.79,0.391-6.147v-0.015v-0.01c0-0.029,0.004-0.213,0.048-1.295c0.023-0.632,0.056-1.171,0.096-1.597l0.008-0.074
	c0.163-1.529,0.476-2.176,0.709-2.451c0.001,0,0.103-0.102,0.594-0.102c0.169,0,0.368,0.012,0.59,0.036
	c0.143,0.016,0.455,0.058,0.926,0.127c0.178,0.026,0.325,0.045,0.44,0.057c0.127,0.014,0.216,0.02,0.298,0.02c0,0,0,0,0.002,0
	c0.974-0.024,1.703-0.084,2.163-0.178c0.951-0.188,1.649-0.569,2.075-1.132c0.142-0.186,0.225-0.379,0.246-0.575
	c0.041-0.382-0.145-0.741-0.55-1.066c-0.428-0.346-0.885-0.548-1.366-0.6c-1.168-0.093-3.095-0.162-5.726-0.205
	c-2.446-0.042-4.354-0.126-5.672-0.249c-1.117-0.106-2.148-0.084-3.044,0.066c-1.247,0.216-1.917,0.695-1.996,1.422
	c-0.031,0.291,0.037,0.606,0.2,0.939C11.86,8.828,12.553,9.15,13.713,9.274z M27.474,35.897l-0.006-0.017
	c-0.18-0.489-0.423-1.407-0.725-2.726c-0.35-1.532-0.633-2.652-0.838-3.334c-0.815-2.717-1.929-4.227-3.308-4.489l-0.027-0.005
	l-0.025,0.011c-0.662,0.282-1.21,1.128-1.677,2.588c-0.512,1.606-0.854,2.645-1.021,3.1c-0.081-0.318-0.248-1.02-0.591-2.525
	c-0.331-1.453-0.718-2.303-1.184-2.597c-0.328-0.206-0.648-0.314-0.948-0.322c-0.364-0.013-0.712,0.121-1.038,0.392
	c-0.168,0.144-0.416,0.405-0.736,0.774c-0.31,0.365-1.043,0.877-1.647,2.111c-0.813,1.662-1.444,5.075-1.471,5.993
	c-0.017,0.604-0.039,0.83-0.052,0.915l-0.006,0.164c0.41,0.33,0.801,0.503,1.163,0.514c0.263,0.008,0.516-0.073,0.754-0.238
	c0.42-0.298,0.819-0.929,1.187-1.874c1.244-3.159,1.58-4.047,1.672-4.309c0.073,0.068,0.2,0.284,0.314,0.964
	c0.006,0.062,0.046,0.376,0.311,2.315c0.308,2.29,0.802,3.413,1.51,3.434l0.025,0.001c0.861-0.013,1.648-0.866,2.39-2.609
	c0.233-0.54,0.483-1.229,0.745-2.054c0.243-0.768,0.368-1.163,0.432-1.369c0.243,0.498,0.493,1.297,0.747,2.377
	c0.274,1.195,0.593,2.068,0.946,2.596c0.325,0.486,0.888,0.856,1.675,1.101c0.206,0.063,0.394,0.098,0.556,0.104
	c0.044,0.002,0.087,0,0.129-0.003c0.328-0.025,0.724-0.214,0.745-0.965L27.474,35.897z M30.042,16.567
	c1.078-1.147,2.381-2.016,3.871-2.586l0.035-0.013l0.015-0.034c0.041-0.09,0.066-0.178,0.075-0.264c0.037-0.333-0.125-0.67-0.478-1
	c-0.386-0.354-0.786-0.555-1.193-0.599l-0.021-0.001c-1.117-0.121-2.359,0.421-3.687,1.607c-0.997,0.893-1.722,1.794-2.158,2.685
	c0.001-1.512-0.337-2.541-1.006-3.062c-0.163-0.125-0.333-0.197-0.51-0.214c-0.163-0.018-0.328,0.015-0.496,0.1
	c-0.333,0.188-0.602,0.571-0.8,1.138l-0.005,0.021c-0.148,1.384-0.14,2.842,0.024,4.334c0.201,1.88,0.63,3.201,1.274,3.928
	c0.272,0.303,0.541,0.471,0.799,0.499c0.026,0.003,0.054,0.004,0.079,0.004c0.57,0,1.06-0.642,1.495-1.964
	C27.949,19.362,28.853,17.822,30.042,16.567z M37.41,34.088c-0.985,0.75-1.898,1.131-2.711,1.132
	c-0.191-0.002-0.376-0.021-0.547-0.06c-0.592-0.13-1.069-0.5-1.417-1.099c-0.199-0.344-0.229-0.52-0.22-0.598l0.004-0.021
	c0.006-0.028,0.027-0.119,0.209-0.169c0.064-0.014,0.263-0.04,0.589-0.08c0.301-0.037,0.552-0.094,0.744-0.17
	c1.174-0.441,1.892-1.225,2.135-2.321c0.081-0.368,0.11-0.782,0.083-1.246c-0.243-1.029-0.636-1.861-1.168-2.472
	c-0.473-0.545-1.044-0.893-1.694-1.038c-0.238-0.052-0.489-0.077-0.744-0.076c-1.872,0.002-3.058,0.615-3.524,1.822
	c-0.251,0.653-0.443,1.272-0.568,1.842c-0.3,1.358-0.245,2.507,0.165,3.419c1.192,2.654,2.819,4.226,4.839,4.672
	c0.2,0.044,0.405,0.077,0.611,0.1c0.214,0.024,0.435,0.037,0.667,0.038c1.23-0.146,2.552-0.724,3.929-1.714
	C40.207,35.024,38.776,33.063,37.41,34.088z M41.833,25.043c0.067,0.007,0.135,0.011,0.202,0.011c0.352,0,0.702-0.1,1.041-0.295
	c0.416-0.236,0.68-0.536,0.789-0.907c0.05-0.476-0.138-1.083-0.579-1.856c-0.222-0.383-0.365-0.67-0.426-0.852
	c-0.14-0.427-0.255-1.131-0.339-2.093c-0.027-0.297-0.045-0.479-0.057-0.555c-0.008-0.07-0.016-0.26-0.02-0.785
	c-0.023-1.232-0.093-2.153-0.208-2.735c-0.198-1.072-0.588-1.647-1.159-1.708l-0.104-0.011c-1.323-0.142-3.401,0.702-6.2,2.521
	c-2.246,2.078-3.47,3.937-3.639,5.527c-0.043,0.803,0.139,1.469,0.542,1.984c0.411,0.517,0.988,0.818,1.72,0.896
	c0.25,0.026,0.514,0.025,0.789-0.003c0.94-0.099,1.889-0.567,2.823-1.392c0.538-0.479,1.254-1.282,2.13-2.388l0.245-0.304
	c0.208,0.389,0.4,1.026,0.569,1.898c0.255,1.26,0.596,2.139,1.012,2.615C41.185,24.86,41.478,25.005,41.833,25.043z M45.291,35.824
	c0.014-0.473-0.16-0.892-0.518-1.247c-0.396-0.383-0.933-0.587-1.602-0.605c-0.546,0.023-0.996,0.204-1.336,0.547
	c-0.295,0.298-0.465,0.661-0.506,1.085l-0.003,0.104c-0.01,0.352,0.073,0.681,0.25,0.979c0.225,0.369,0.552,0.604,0.972,0.698
	c0.206,0.041,0.411,0.066,0.612,0.071c0.121,0.004,0.24,0.001,0.352-0.008c0.469-0.037,0.865-0.182,1.179-0.43
	C45.074,36.712,45.276,36.31,45.291,35.824z M51.018,35.865c0.014-0.471-0.161-0.89-0.518-1.245
	c-0.396-0.383-0.933-0.586-1.603-0.605c-0.542,0.023-0.996,0.204-1.335,0.547c-0.294,0.298-0.465,0.662-0.506,1.085l-0.003,0.104
	c-0.01,0.353,0.073,0.682,0.248,0.981c0.227,0.367,0.553,0.604,0.974,0.696c0.206,0.042,0.411,0.065,0.612,0.072
	c0.12,0.004,0.239,0.001,0.351-0.008c0.468-0.037,0.865-0.182,1.177-0.432C50.801,36.755,51.004,36.353,51.018,35.865z
	 M56.676,35.001c0.013-0.471-0.161-0.891-0.518-1.246c-0.396-0.383-0.934-0.586-1.603-0.605c-0.544,0.022-0.996,0.204-1.336,0.545
	c-0.293,0.3-0.464,0.664-0.506,1.086l-0.003,0.104c-0.01,0.352,0.073,0.682,0.249,0.98c0.226,0.37,0.553,0.604,0.974,0.698
	c0.205,0.041,0.41,0.064,0.61,0.071c0.121,0.002,0.24,0.001,0.352-0.008c0.47-0.037,0.865-0.182,1.177-0.432
	C56.458,35.89,56.661,35.487,56.676,35.001z M48.205,19.561L48.205,19.561c0.335,0.081,0.646,0.043,0.951-0.117
	c0.327-0.17,0.582-0.441,0.757-0.808c0.029-0.061,0.055-0.123,0.078-0.185c0.106-0.297,0.129-0.59,0.063-0.872
	c-0.087-0.381-0.307-0.657-0.673-0.847c-0.047-0.024-0.091-0.043-0.134-0.06c-0.234-0.083-0.445-0.054-0.644,0.093
	c-0.217,0.159-0.395,0.428-0.53,0.803c-0.301,0.833-0.304,1.488-0.011,1.949C48.109,19.535,48.157,19.548,48.205,19.561z"/>
</svg>
