<?xml version="1.0" encoding="utf-8"?>
<!-- Generator: Adobe Illustrator 22.0.0, SVG Export Plug-In . SVG Version: 6.00 Build 0)  -->
<svg version="1.1" xmlns="http://www.w3.org/2000/svg" xmlns:xlink="http://www.w3.org/1999/xlink" x="0px" y="0px"
	 viewBox="0 0 250 250" enable-background="new 0 0 250 250" xml:space="preserve">
<g id="Layer_3">
	
		<image overflow="visible" width="435" height="424" xlink:href="E59A79A3C9D0930C.png"  transform="matrix(0.48 0 0 0.48 19.8296 21.52)">
	</image>
</g>
<g id="Layer_4">
	
		<image overflow="visible" width="408" height="428" xlink:href="E59A79A3C9D0930D.png"  transform="matrix(0.48 0 0 0.48 28.4077 17.1836)">
	</image>
</g>
<g id="Layer_5">
	
		<image overflow="visible" width="389" height="408" xlink:href="E59A79A3C9D0930B.png"  transform="matrix(0.48 0 0 0.48 29.5195 23.5952)">
	</image>
</g>
<g id="Layer_6">
	
		<image overflow="visible" width="420" height="436" xlink:href="E59A79A3C9D09314.png"  transform="matrix(0.48 0 0 0.48 24.3013 15.9482)">
	</image>
</g>
<g id="Layer_7">
	
		<image overflow="visible" width="428" height="408" xlink:href="E59A79A3C9D09317.png"  transform="matrix(0.48 0 0 0.48 23.6021 24.0039)">
	</image>
</g>
<g id="Layer_8">
	
		<image overflow="visible" width="408" height="395" xlink:href="E59A79A3C9D09315.png"  transform="matrix(0.48 0 0 0.48 26.7534 22.2808)">
	</image>
</g>
<g id="Layer_9">
	
		<image overflow="visible" width="436" height="420" xlink:href="E59A79A3C9D0931B.png"  transform="matrix(0.48 0 0 0.48 21.208 19.8975)">
	</image>
</g>
<g id="Layer_10">
	
		<image overflow="visible" width="417" height="428" xlink:href="E59A79A3C9D0931C.png"  transform="matrix(0.48 0 0 0.48 26.2158 19.1978)">
	</image>
</g>
<g id="Layer_11">
	
		<image overflow="visible" width="412" height="408" xlink:href="E59A79A3C9D0931F.png"  transform="matrix(0.48 0 0 0.48 34.5825 22.3496)">
	</image>
</g>
<g id="Layer_12">
	
		<image overflow="visible" width="420" height="436" xlink:href="2F5394AC2B25411B.png"  transform="matrix(0.48 0 0 0.48 24.5889 16.8042)">
	</image>
</g>
<g id="Layer_2">
	
		<image overflow="visible" width="428" height="411" xlink:href="2F5394AC2B254119.png"  transform="matrix(0.48 0 0 0.48 21.5889 21.812)">
	</image>
</g>
<g id="Layer_1">
	
		<image overflow="visible" width="408" height="406" xlink:href="2F5394AC2B25411F.png"  transform="matrix(0.48 0 0 0.48 28 30.1782)">
	</image>
	
		<image overflow="visible" width="863" height="825" xlink:href="3F877F5EC4329B21.png"  transform="matrix(0.1638 0 0 0.1638 55.8678 62.9863)">
	</image>
	
		<image overflow="visible" width="417" height="417" xlink:href="icono-01.png"  transform="matrix(0.3275 0 0 0.3275 55.7265 62.6686)">
	</image>
</g>
</svg>
