<?xml version="1.0" encoding="utf-8"?>
<!-- Generator: Adobe Illustrator 16.0.4, SVG Export Plug-In . SVG Version: 6.00 Build 0)  -->
<!DOCTYPE svg PUBLIC "-//W3C//DTD SVG 1.1//EN" "http://www.w3.org/Graphics/SVG/1.1/DTD/svg11.dtd">
<svg version="1.1" id="Layer_1" xmlns="http://www.w3.org/2000/svg" xmlns:xlink="http://www.w3.org/1999/xlink" x="0px" y="0px"
	 width="152.001px" height="50px" viewBox="0 0 152.001 50" enable-background="new 0 0 152.001 50" xml:space="preserve">
<g>
	<path fill="#414042" d="M12.599,47.602L2,19.575h8.928l5.73,16.139l5.729-16.139h8.977L20.43,47.602H12.599z"/>
	<path fill="#414042" d="M33.998,47.602c-4.458,0-6.684-2.116-6.684-6.35V19.575h8.259v18.238c0,1.02,0.478,1.527,1.433,1.527h5.586
		c0.956,0,1.433-0.477,1.433-1.432V19.575h8.163v21.486c0,4.358-2.131,6.54-6.396,6.54H33.998z"/>
	<path fill="#414042" d="M71.534,47.602V29.316c0-0.955-0.477-1.435-1.433-1.435h-5.824c-0.955,0-1.432,0.479-1.432,1.435v18.285
		h-8.26V26.164c0-4.393,2.179-6.589,6.541-6.589h12.079c4.329,0,6.494,2.211,6.494,6.636v21.391H71.534z"/>
	<path fill="#414042" d="M87.852,47.602c-4.457,0-6.686-2.116-6.686-6.35V26.164c0-4.393,2.179-6.589,6.542-6.589h12.319
		c4.33,0,6.493,2.211,6.493,6.636v14.851c0,4.358-2.133,6.54-6.397,6.54H87.852z M98.357,29.316c0-0.955-0.479-1.435-1.434-1.435
		h-6.064c-0.955,0-1.433,0.479-1.433,1.435v8.497c0,1.02,0.478,1.527,1.433,1.527h6.064c0.954,0,1.434-0.477,1.434-1.432V29.316z"/>
</g>
<g>
	<path fill="#41C3D6" d="M111.834,14.777h27.232c0.874,0,1.592-0.705,1.592-1.583V2.645c0-0.87-0.718-1.582-1.592-1.582h-27.232
		c-0.876,0-1.588,0.712-1.588,1.582v10.55C110.246,14.072,110.958,14.777,111.834,14.777"/>
	<path fill="#41C3D6" d="M139.066,33.891h-27.219c-0.884,0-1.597,0.709-1.597,1.591V46.02c0,0.868,0.713,1.582,1.597,1.582h27.219
		c0.881,0,1.595-0.714,1.595-1.582V35.481C140.661,34.6,139.947,33.891,139.066,33.891"/>
	<path fill="#41C3D6" d="M121.572,17.549c-0.877,0-1.579,0.702-1.579,1.582v10.53c0,0.89,0.702,1.599,1.579,1.599h27.234
		c0.874,0,1.584-0.709,1.584-1.599v-10.53c0-0.88-0.71-1.582-1.584-1.582H121.572z"/>
</g>
</svg>
