<?xml version="1.0" encoding="utf-8"?>
<!-- Generator: Adobe Illustrator 16.0.4, SVG Export Plug-In . SVG Version: 6.00 Build 0)  -->
<!DOCTYPE svg PUBLIC "-//W3C//DTD SVG 1.1//EN" "http://www.w3.org/Graphics/SVG/1.1/DTD/svg11.dtd">
<svg version="1.1" id="Layer_1" xmlns="http://www.w3.org/2000/svg" xmlns:xlink="http://www.w3.org/1999/xlink" x="0px" y="0px"
	 width="68.334px" height="58.667px" viewBox="0 0 68.334 58.667" enable-background="new 0 0 68.334 58.667" xml:space="preserve">
<g>
	<g>
		<path fill="#414042" d="M7.912,57.427l-6.68-17.662h5.627l3.609,10.17l3.611-10.17h5.658l-6.892,17.662H7.912z"/>
		<path fill="#414042" d="M21.397,57.427c-2.81,0-4.213-1.334-4.213-4.002v-13.66h5.205v11.492c0,0.645,0.302,0.965,0.902,0.965
			h3.521c0.603,0,0.902-0.301,0.902-0.902V39.765h5.145v13.541c0,2.746-1.343,4.121-4.03,4.121H21.397z"/>
		<path fill="#414042" d="M45.054,57.427V45.903c0-0.604-0.302-0.904-0.903-0.904h-3.671c-0.602,0-0.902,0.301-0.902,0.904v11.523
			h-5.206v-13.51c0-2.77,1.373-4.152,4.122-4.152h7.613c2.727,0,4.092,1.393,4.092,4.182v13.48H45.054z"/>
		<path fill="#414042" d="M55.337,57.427c-2.809,0-4.213-1.334-4.213-4.002v-9.508c0-2.77,1.373-4.152,4.122-4.152h7.764
			c2.729,0,4.092,1.393,4.092,4.182v9.359c0,2.746-1.344,4.121-4.031,4.121H55.337z M61.957,45.903c0-0.604-0.301-0.904-0.904-0.904
			h-3.82c-0.602,0-0.902,0.301-0.902,0.904v5.354c0,0.645,0.301,0.965,0.902,0.965h3.82c0.604,0,0.904-0.301,0.904-0.902V45.903z"/>
	</g>
	<g>
		<path fill="#41C3D6" d="M44.49,10.772H25.004c-0.625,0-1.139-0.491-1.139-1.101V2.34c0-0.604,0.514-1.1,1.139-1.1H44.49
			c0.627,0,1.137,0.495,1.137,1.1v7.332C45.627,10.281,45.117,10.772,44.49,10.772"/>
		<path fill="#41C3D6" d="M25.004,24.055h19.479c0.631,0,1.141,0.493,1.141,1.105v7.323c0,0.604-0.51,1.1-1.141,1.1H25.004
			c-0.631,0-1.142-0.496-1.142-1.1V25.16C23.862,24.548,24.373,24.055,25.004,24.055"/>
		<path fill="#41C3D6" d="M37.522,12.698c0.628,0,1.13,0.487,1.13,1.1v7.317c0,0.618-0.502,1.111-1.13,1.111H18.033
			c-0.625,0-1.133-0.493-1.133-1.111v-7.317c0-0.612,0.508-1.1,1.133-1.1H37.522z"/>
	</g>
</g>
</svg>
