<?xml version="1.0" encoding="utf-8"?>
<!-- Generator: Adobe Illustrator 16.0.4, SVG Export Plug-In . SVG Version: 6.00 Build 0)  -->
<!DOCTYPE svg PUBLIC "-//W3C//DTD SVG 1.1//EN" "http://www.w3.org/Graphics/SVG/1.1/DTD/svg11.dtd">
<svg version="1.1" xmlns="http://www.w3.org/2000/svg" xmlns:xlink="http://www.w3.org/1999/xlink" x="0px" y="0px"
	 width="663.066px" height="518.658px" viewBox="0 0 663.066 518.658" enable-background="new 0 0 663.066 518.658"
	 xml:space="preserve">
<g id="Layer_5" display="none">
	<g display="inline">
		<defs>
			<rect id="SVGID_3_" x="-996.968" y="-1478.945" width="1133" height="1115"/>
		</defs>
		<clipPath id="SVGID_2_">
			<use xlink:href="#SVGID_3_"  overflow="visible"/>
		</clipPath>
		<g id="OImYb4_1_" clip-path="url(#SVGID_2_)">
			
				<image overflow="visible" width="1329" height="1920" id="OImYb4_2_" xlink:href="627D56633607977D.jpg"  transform="matrix(0.8525 0 0 0.8525 -979.9619 -1469.4448)">
			</image>
		</g>
	</g>
</g>
<g id="Layer_4">
</g>
<g id="Layer_1">
</g>
<g id="Layer_2">
	<g>
		<g>
			<g id="XMLID_104_">
				
					<image overflow="visible" opacity="0.61" width="472" height="322" xlink:href="627D56633607977F.png"  transform="matrix(1.2501 0 0 1.2501 36.9834 53.2139)">
				</image>
				<g>
					<g>
						<path fill="#FFFFFF" d="M553.465,431.587H110.346c-6.399,0-12.279-3.515-15.31-9.148L60.168,215.607
							c-3.136-13.991,5.577-16.77,15.31-25.611C236.57,43.651,417.977,32.91,588.14,186.451c9.761,8.81,17.138,10.144,15.31,25.616
							l-34.677,210.375C565.743,428.076,559.86,431.587,553.465,431.587z"/>
					</g>
				</g>
			</g>
			<g id="XMLID_88_">
				<g id="XMLID_103_">
					<path fill="#FFE165" d="M523.68,294.896c0,0-85.861,95.638-191.774,95.638c-105.915,0-191.775-95.638-191.775-95.638
						s46.121-51.356,112.44-78.812h0.012c13.698-5.673,28.272-10.324,43.479-13.282c7.888-1.53,15.938-2.618,24.132-3.152
						c3.873-0.256,7.781-0.39,11.713-0.39c3.933,0,7.84,0.134,11.713,0.39c8.193,0.533,16.243,1.622,24.131,3.152
						c15.207,2.958,29.781,7.609,43.479,13.282C477.559,243.527,523.68,294.896,523.68,294.896z"/>
				</g>
				<g id="XMLID_94_">
					<g id="XMLID_96_">
						<g id="XMLID_102_">
							<path fill="#FFA250" d="M512.194,287.898c19.915,0,36.057,16.146,36.057,36.055c0,19.92-16.142,36.061-36.057,36.061
								c-19.913,0-36.058-16.141-36.058-36.061C476.137,304.044,492.281,287.898,512.194,287.898z"/>
						</g>
						<g id="XMLID_101_">
							<path fill="#FFA250" d="M440.077,287.898c19.913,0,36.06,16.146,36.06,36.055c0,19.92-16.146,36.061-36.06,36.061
								c-19.912,0-36.057-16.141-36.057-36.061C404.021,304.044,420.165,287.898,440.077,287.898z"/>
						</g>
						<g id="XMLID_100_">
							<path fill="#FFA250" d="M367.961,287.898c19.915,0,36.058,16.146,36.058,36.055c0,19.92-16.143,36.061-36.058,36.061
								c-19.912,0-36.056-16.141-36.056-36.061C331.905,304.044,348.049,287.898,367.961,287.898z"/>
						</g>
						<g id="XMLID_99_">
							<path fill="#FFA250" d="M295.85,287.898c19.913,0,36.056,16.146,36.056,36.055c0,19.92-16.143,36.061-36.056,36.061
								c-19.917,0-36.06-16.141-36.06-36.061C259.79,304.044,275.933,287.898,295.85,287.898z"/>
						</g>
						<g id="XMLID_98_">
							<path fill="#FFA250" d="M223.733,287.898c19.914,0,36.057,16.146,36.057,36.055c0,19.92-16.143,36.061-36.057,36.061
								c-19.915,0-36.059-16.141-36.059-36.061C187.675,304.044,203.818,287.898,223.733,287.898z"/>
						</g>
						<g id="XMLID_97_">
							<path fill="#FFA250" d="M151.614,287.898c19.917,0,36.06,16.146,36.06,36.055c0,19.92-16.143,36.061-36.06,36.061
								c-19.912,0-36.058-16.141-36.058-36.061C115.557,304.044,131.702,287.898,151.614,287.898z"/>
						</g>
					</g>
					<g id="XMLID_95_">
						<path fill="#FFA250" d="M161.999,384.449h339.816c25.646,0,46.437-20.79,46.437-46.439v-14.057H115.557v14.057
							C115.557,363.659,136.351,384.449,161.999,384.449z"/>
					</g>
				</g>
				<g id="XMLID_93_">
					<path fill="#5FD2DB" d="M521.167,412.438H142.645c-5.464,0-10.487-3.002-13.076-7.815l-22.95-42.673
						c-5.32-9.893,1.846-21.88,13.078-21.88h424.419c11.231,0,18.394,11.987,13.077,21.88l-22.951,42.676
						C531.654,409.438,526.63,412.438,521.167,412.438z"/>
				</g>
				<g id="XMLID_89_">
					<g id="XMLID_92_">
						<path fill="#FF5959" d="M343.618,199.647v42.55c0,6.445-5.274,11.717-11.713,11.717c-6.441,0-11.713-5.271-11.713-11.717
							v-42.55c3.873-0.254,7.781-0.388,11.713-0.388C335.838,199.26,339.745,199.394,343.618,199.647z"/>
					</g>
					<g id="XMLID_91_">
						<path fill="#FF5959" d="M415.394,237.478c-5.663,7.268-14.928,7.268-20.59,0l-27.055-34.676
							c15.207,2.958,29.781,7.609,43.479,13.282l4.165,5.335C418.839,225.835,418.839,233.058,415.394,237.478z"/>
					</g>
					<g id="XMLID_90_">
						<path fill="#FF5959" d="M296.061,202.801l-27.056,34.674c-5.659,7.27-14.928,7.27-20.585,0c-3.447-4.417-3.447-11.64,0-16.056
							l4.15-5.335h0.012C266.28,210.411,280.854,205.76,296.061,202.801z"/>
					</g>
				</g>
			</g>
			<g>
				<g>
					<path fill="#FF5959" d="M80.263,225.26c3.925-4.424,7.932-8.724,12.023-12.892c2.246-2.285,4.458-4.061,6.606-5.324
						c2.146-1.263,4.45-2.014,6.886-2.25c2.433-0.231,4.592,0.161,6.477,1.145c1.885,0.985,3.961,2.753,6.24,5.281
						c1.676,1.86,2.966,3.588,3.879,5.165c0.907,1.586,1.418,3.366,1.553,5.346c0.196,2.357-0.223,4.726-1.233,7.133
						c-1.012,2.407-2.896,4.961-5.63,7.744c-1.248,1.272-2.488,2.555-3.721,3.852c5.364,5.101,10.727,10.198,16.091,15.299
						c-2.237,2.358-4.447,4.765-6.62,7.22C108.63,250.406,94.446,237.83,80.263,225.26z M107.787,235.178
						c1.189-1.254,2.39-2.494,3.593-3.722c1.522-1.556,2.546-2.91,3.059-4.092s0.688-2.259,0.518-3.246
						c-0.171-0.985-0.621-1.939-1.355-2.854c-0.737-0.918-1.6-1.896-2.6-2.931c-0.922-0.962-1.836-1.836-2.745-2.624
						c-0.909-0.789-1.866-1.305-2.874-1.553c-1.006-0.244-2.113-0.138-3.313,0.333c-1.2,0.476-2.591,1.499-4.158,3.097
						c-1.386,1.412-2.765,2.835-4.132,4.277C98.448,226.3,103.116,230.738,107.787,235.178z"/>
					<path fill="#FF5959" d="M122.867,263.861L79.38,225.315l0.415-0.47c3.899-4.4,7.952-8.744,12.047-12.915
						c2.26-2.301,4.528-4.126,6.735-5.428c2.213-1.304,4.616-2.088,7.141-2.332c2.538-0.237,4.82,0.166,6.824,1.212
						c1.959,1.022,4.055,2.796,6.421,5.42c1.683,1.871,3.012,3.646,3.95,5.271c0.948,1.645,1.494,3.535,1.636,5.614
						c0.201,2.418-0.229,4.916-1.28,7.416c-1.025,2.442-2.91,5.04-5.76,7.943c-1.102,1.12-2.193,2.248-3.281,3.391l16.09,15.296
						l-0.43,0.451c-2.236,2.361-4.46,4.782-6.606,7.205L122.867,263.861z M81.146,225.207l41.616,36.889
						c1.889-2.123,3.832-4.245,5.79-6.315l-16.092-15.297l0.431-0.455c1.234-1.299,2.476-2.586,3.728-3.856
						c2.733-2.788,4.533-5.257,5.498-7.551c0.987-2.344,1.377-4.583,1.189-6.84c-0.13-1.922-0.612-3.582-1.476-5.083
						c-0.896-1.553-2.174-3.251-3.798-5.06c-2.232-2.476-4.272-4.208-6.069-5.148c-1.786-0.932-3.843-1.288-6.126-1.074
						c-2.343,0.227-4.568,0.955-6.627,2.166c-2.111,1.244-4.291,3.004-6.479,5.224C88.799,216.813,84.904,220.982,81.146,225.207z
						 M107.81,236.06l-14.914-14.175l0.43-0.454c1.372-1.441,2.749-2.868,4.139-4.283c1.611-1.638,3.083-2.73,4.375-3.237
						c1.308-0.517,2.557-0.64,3.69-0.359c1.101,0.268,2.153,0.835,3.136,1.687c0.918,0.796,1.857,1.693,2.788,2.66
						c0.981,1.016,1.865,2.017,2.634,2.974c0.793,0.99,1.293,2.047,1.482,3.139c0.19,1.099,0.002,2.312-0.559,3.604
						c-0.537,1.239-1.576,2.639-3.186,4.279c-1.203,1.225-2.397,2.462-3.585,3.716L107.81,236.06z M94.661,221.841l13.105,12.454
						c1.048-1.104,2.105-2.193,3.166-3.277c1.5-1.529,2.457-2.804,2.932-3.901c0.471-1.08,0.625-2.026,0.474-2.892
						c-0.151-0.884-0.565-1.748-1.224-2.571c-0.747-0.925-1.609-1.898-2.562-2.888c-0.907-0.944-1.815-1.812-2.707-2.585
						c-0.832-0.721-1.707-1.197-2.612-1.419c-0.883-0.213-1.871-0.108-2.934,0.311c-1.129,0.445-2.459,1.439-3.946,2.953
						C97.116,219.284,95.887,220.555,94.661,221.841z"/>
				</g>
				<g>
					<path fill="#FF5959" d="M119.858,187.203c2.455-2.009,4.937-3.974,7.437-5.897c16.221,11.432,31.731,23.609,46.487,36.465
						c-2.572,1.772-5.119,3.595-7.641,5.464c-3.164-2.729-6.356-5.426-9.576-8.097c-3.569,2.698-7.085,5.488-10.553,8.374
						c1.85,3.756,3.731,7.493,5.649,11.211c-2.423,2.054-4.819,4.159-7.185,6.31C135.444,223.628,127.228,205.661,119.858,187.203z
						 M133.758,197.037c-0.056,0.045-0.113,0.09-0.167,0.133c2.874,6.488,5.848,12.918,8.912,19.291
						c2.621-2.154,5.27-4.257,7.944-6.307C144.967,205.699,139.402,201.326,133.758,197.037z"/>
					<path fill="#FF5959" d="M144.298,242.04l-0.373-0.721c-9.012-17.366-17.305-35.493-24.646-53.886l-0.168-0.427l0.355-0.29
						c2.416-1.976,4.925-3.964,7.444-5.909l0.366-0.28l0.378,0.266c16.098,11.345,31.757,23.63,46.538,36.504l0.606,0.529
						l-0.661,0.456c-2.555,1.763-5.117,3.599-7.623,5.454l-0.403,0.298l-0.377-0.327c-3.058-2.632-6.143-5.246-9.188-7.773
						c-3.302,2.508-6.579,5.108-9.756,7.742c1.753,3.553,3.578,7.171,5.428,10.762l0.229,0.439l-0.38,0.322
						c-2.403,2.041-4.815,4.157-7.169,6.295L144.298,242.04z M120.609,187.396c7.183,17.953,15.272,35.652,24.051,52.626
						c2.047-1.847,4.135-3.68,6.22-5.454c-1.854-3.603-3.68-7.226-5.431-10.782l-0.218-0.442l0.381-0.314
						c3.436-2.858,6.994-5.682,10.574-8.391l0.395-0.298l0.383,0.313c3.047,2.527,6.145,5.142,9.209,7.782
						c2.17-1.606,4.385-3.188,6.595-4.724c-14.458-12.559-29.743-24.541-45.455-35.632
						C125.045,183.834,122.793,185.616,120.609,187.396z M142.285,217.447l-0.345-0.716c-3.06-6.354-6.059-12.854-8.921-19.309
						l-0.193-0.44l0.915-0.743l0.393,0.301c5.63,4.276,11.253,8.694,16.709,13.13l0.612,0.5l-0.628,0.479
						c-2.639,2.024-5.309,4.141-7.928,6.293L142.285,217.447z M134.979,198.757c2.502,5.593,5.1,11.204,7.744,16.715
						c2.223-1.816,4.478-3.606,6.717-5.33C144.705,206.304,139.853,202.479,134.979,198.757z"/>
				</g>
				<g>
					<path fill="#FF5959" d="M146.104,167.816c5.013-3.341,10.095-6.528,15.243-9.572c11.383-6.671,19.804-4.52,24.812,5.367
						c1.515,2.939,2.213,5.763,2.153,8.471c-0.063,2.703-1.185,5.447-3.323,8.265c7.356,5.827,14.465,11.868,21.327,18.099
						c-2.902,1.466-5.782,2.984-8.642,4.558c-6.415-5.71-13.033-11.258-19.845-16.635c-1.729,1.021-3.448,2.06-5.166,3.121
						c4.254,6.889,8.511,13.778,12.764,20.667c-2.64,1.632-5.255,3.312-7.85,5.037C167.089,199.402,156.593,183.608,146.104,167.816
						z M168.89,183.374c1.668-1.03,3.342-2.045,5.025-3.044c1.564-0.928,2.717-1.822,3.453-2.713
						c0.738-0.884,1.174-1.783,1.312-2.72c0.135-0.932,0.028-1.923-0.323-2.978c-0.351-1.053-0.878-2.208-1.575-3.466
						c-0.701-1.258-1.407-2.311-2.123-3.163c-0.717-0.848-1.553-1.448-2.518-1.794c-0.966-0.343-2.063-0.375-3.294-0.1
						c-1.236,0.278-2.717,0.923-4.431,1.941c-1.623,0.966-3.239,1.946-4.85,2.943C162.674,173.313,165.78,178.344,168.89,183.374z"
						/>
					<path fill="#FF5959" d="M177.405,216.062l-32.167-48.423l0.517-0.343c4.973-3.312,10.111-6.54,15.274-9.592
						c11.495-6.737,20.446-4.724,25.688,5.626c1.533,2.979,2.283,5.929,2.219,8.764c-0.061,2.676-1.072,5.342-3.087,8.141
						c7.141,5.671,14.163,11.642,20.886,17.746l0.673,0.61l-0.81,0.41c-2.92,1.478-5.821,3.007-8.625,4.55l-0.384,0.214
						l-0.331-0.296c-6.291-5.596-12.845-11.098-19.48-16.35c-1.423,0.848-2.838,1.704-4.25,2.574l12.758,20.664l-0.531,0.328
						c-2.605,1.614-5.244,3.307-7.829,5.029L177.405,216.062z M146.97,167.992l30.785,46.337c2.255-1.494,4.541-2.965,6.814-4.375
						l-12.764-20.667l0.531-0.329c1.717-1.06,3.442-2.104,5.176-3.131l0.368-0.218l0.337,0.266
						c6.654,5.257,13.227,10.76,19.542,16.367c2.435-1.335,4.94-2.657,7.462-3.944c-6.645-6.011-13.578-11.882-20.621-17.462
						l-0.479-0.38l0.368-0.486c2.096-2.761,3.141-5.347,3.197-7.902c0.059-2.623-0.643-5.374-2.084-8.17
						c-4.924-9.72-13.145-11.44-23.939-5.112C156.702,161.716,151.76,164.813,146.97,167.992z M168.685,184.234l-9.975-16.154
						l0.528-0.328c1.612-0.998,3.233-1.982,4.859-2.951c1.753-1.04,3.3-1.718,4.61-2.013c1.341-0.303,2.57-0.26,3.645,0.122
						c1.059,0.378,1.994,1.047,2.782,1.979c0.74,0.876,1.477,1.976,2.191,3.261c0.712,1.281,1.26,2.483,1.625,3.572
						c0.38,1.14,0.499,2.24,0.35,3.267c-0.153,1.04-0.643,2.06-1.452,3.032c-0.774,0.931-1.958,1.862-3.614,2.848
						c-1.682,0.997-3.354,2.008-5.019,3.038L168.685,184.234z M160.427,168.487l8.665,14.027c1.493-0.922,2.998-1.83,4.502-2.721
						c1.533-0.91,2.61-1.752,3.294-2.574c0.673-0.803,1.054-1.591,1.174-2.411c0.121-0.832,0.022-1.739-0.296-2.688
						c-0.34-1.02-0.856-2.15-1.531-3.363c-0.677-1.216-1.367-2.245-2.056-3.062c-0.644-0.765-1.398-1.304-2.248-1.606
						c-0.846-0.302-1.84-0.33-2.946-0.084c-1.178,0.27-2.609,0.9-4.247,1.875C163.296,166.735,161.86,167.604,160.427,168.487z"/>
				</g>
				<g>
					<path fill="#FF5959" d="M197.591,139.702c2.803-1.227,5.621-2.412,8.45-3.556c12.423,15.427,24.001,31.35,34.704,47.707
						c-2.867,0.993-5.723,2.034-8.561,3.128c-2.301-3.483-4.636-6.947-7.006-10.393c-4.023,1.59-8.023,3.272-11.989,5.048
						c0.809,4.102,1.655,8.191,2.542,12.27c-2.779,1.276-5.543,2.6-8.287,3.971C203.245,178.778,199.952,159.361,197.591,139.702z
						 M208.217,152.967c-0.062,0.024-0.124,0.053-0.186,0.078c1.097,6.994,2.296,13.959,3.604,20.89
						c2.99-1.319,6.003-2.585,9.029-3.801C216.61,164.356,212.466,158.634,208.217,152.967z"/>
					<path fill="#FF5959" d="M207.006,198.796l-0.174-0.784c-4.194-19.074-7.512-38.668-9.861-58.236l-0.058-0.459l0.428-0.188
						c2.834-1.236,5.681-2.438,8.466-3.564l0.429-0.172l0.293,0.362c12.344,15.325,24.033,31.397,34.738,47.757l0.439,0.671
						l-0.756,0.261c-2.863,0.994-5.738,2.044-8.541,3.121l-0.47,0.179l-0.278-0.421c-2.209-3.341-4.466-6.694-6.713-9.971
						c-3.688,1.466-7.4,3.025-11.05,4.65c0.775,3.921,1.599,7.876,2.442,11.771l0.108,0.492l-0.459,0.208
						c-2.784,1.279-5.565,2.613-8.269,3.965L207.006,198.796z M198.267,140.089c2.312,19.106,5.545,38.23,9.617,56.871
						c2.336-1.16,4.728-2.308,7.128-3.411c-0.842-3.906-1.66-7.87-2.437-11.794l-0.096-0.485l0.454-0.202
						c3.963-1.776,8.008-3.477,12.019-5.061l0.461-0.184l0.281,0.412c2.253,3.273,4.517,6.632,6.734,9.983
						c2.42-0.923,4.891-1.83,7.354-2.693c-10.48-15.967-21.894-31.645-33.938-46.628
						C203.349,137.914,200.804,138.984,198.267,140.089z M211.165,174.822l-0.145-0.773c-1.303-6.9-2.514-13.937-3.609-20.909
						l-0.072-0.483l1.028-0.432l0.354,0.365c4.209,5.621,8.4,11.403,12.456,17.184l0.455,0.642l-0.735,0.298
						c-3.02,1.213-6.052,2.491-9.01,3.795L211.165,174.822z M208.977,155.027c0.962,6.014,2.014,12.062,3.125,18.019
						c2.503-1.093,5.054-2.169,7.6-3.198C216.197,164.866,212.599,159.893,208.977,155.027z"/>
				</g>
				<g>
					<path fill="#FF5959" d="M227.431,128.316c3.46-1.134,6.94-2.214,10.431-3.233c5.35,18.186,10.7,36.377,16.044,54.564
						c-2.904,0.851-5.796,1.748-8.679,2.693C239.294,164.332,233.363,146.326,227.431,128.316z"/>
					<path fill="#FF5959" d="M244.831,183.13l-18.191-55.214l0.596-0.192c3.462-1.134,6.979-2.227,10.453-3.243l0.598-0.172
						l16.396,55.763l-0.601,0.177c-2.865,0.838-5.779,1.742-8.661,2.688L244.831,183.13z M228.218,128.716l17.406,52.838
						c2.5-0.812,5.019-1.594,7.506-2.329l-15.69-53.368C234.374,126.761,231.276,127.721,228.218,128.716z"/>
				</g>
				<g>
					<path fill="#FF5959" d="M284.977,131.427c-3.401,0.513-6.801,1.079-10.192,1.702c-0.109-0.602-0.221-1.205-0.333-1.808
						c-0.338-1.832-1.183-3.317-2.557-4.442c-1.37-1.116-3.396-1.425-6.051-0.876c-1.428,0.296-2.555,0.758-3.381,1.373
						c-0.823,0.618-1.414,1.31-1.772,2.069c-0.354,0.766-0.539,1.599-0.539,2.497c-0.005,0.904,0.104,1.821,0.323,2.756
						c0.251,1.087,0.508,1.997,0.784,2.729c0.275,0.732,0.662,1.319,1.182,1.778c0.516,0.455,1.195,0.808,2.034,1.059
						c0.841,0.253,1.956,0.441,3.345,0.585c2.701,0.274,5.39,0.586,8.062,0.93c2.323,0.273,4.241,0.771,5.746,1.462
						s2.721,1.604,3.648,2.725c0.924,1.121,1.638,2.47,2.135,4.037c0.496,1.566,0.897,3.375,1.211,5.43
						c0.362,2.369,0.414,4.607,0.184,6.717c-0.229,2.11-0.838,3.98-1.811,5.625c-0.979,1.644-2.382,3.055-4.212,4.247
						c-1.827,1.193-4.148,2.071-6.979,2.656c-2.138,0.446-4.2,0.542-6.204,0.296c-2.007-0.248-3.818-0.781-5.447-1.613
						c-1.626-0.826-3.051-1.931-4.266-3.321c-1.211-1.39-2.078-3.005-2.574-4.856c-0.257-0.979-0.52-1.956-0.781-2.934
						c3.088-0.818,6.187-1.59,9.295-2.311c0.192,0.832,0.384,1.664,0.579,2.49c0.339,1.453,1.14,2.646,2.393,3.595
						c1.25,0.945,3.021,1.16,5.338,0.68c1.55-0.319,2.712-0.754,3.502-1.315c0.79-0.558,1.343-1.232,1.663-2.024
						c0.316-0.792,0.438-1.721,0.367-2.788c-0.072-1.071-0.222-2.232-0.455-3.493c-0.27-1.465-0.556-2.657-0.855-3.575
						c-0.301-0.919-0.708-1.631-1.219-2.13c-0.52-0.498-1.173-0.863-1.969-1.09c-0.791-0.229-1.832-0.429-3.113-0.606
						c-2.458-0.319-4.933-0.603-7.421-0.858c-4.491-0.453-7.767-1.578-9.803-3.507c-2.03-1.927-3.531-4.596-4.445-8.046
						c-0.544-2.058-0.706-4.111-0.45-6.159c0.252-2.045,0.941-3.927,2.072-5.636c1.129-1.709,2.738-3.239,4.836-4.573
						c2.095-1.33,4.684-2.327,7.754-2.958c2.649-0.546,5.151-0.646,7.485-0.317c2.327,0.335,4.377,0.983,6.14,1.933
						c1.758,0.95,3.167,2.115,4.219,3.49c1.057,1.369,1.694,2.853,1.938,4.431C284.579,128.794,284.778,130.111,284.977,131.427z"/>
					<path fill="#FF5959" d="M271.775,175.729c-0.756,0-1.512-0.046-2.254-0.139c-2.077-0.254-3.979-0.817-5.653-1.674
						c-1.696-0.86-3.194-2.028-4.452-3.467c-1.281-1.472-2.192-3.188-2.708-5.108l-0.941-3.538l0.604-0.159
						c3.102-0.823,6.232-1.603,9.314-2.312l0.605-0.142l0.722,3.099c0.308,1.307,1.013,2.368,2.159,3.234
						c1.098,0.829,2.69,1.012,4.838,0.567c1.46-0.302,2.558-0.71,3.266-1.213c0.688-0.487,1.174-1.074,1.444-1.747
						c0.278-0.697,0.388-1.541,0.323-2.515c-0.068-1.039-0.218-2.189-0.445-3.418c-0.262-1.423-0.541-2.602-0.836-3.501
						c-0.27-0.82-0.623-1.448-1.062-1.873c-0.44-0.428-1.015-0.744-1.699-0.935c-0.758-0.22-1.776-0.419-3.028-0.592
						c-2.435-0.312-4.928-0.6-7.398-0.855c-4.738-0.478-8.066-1.681-10.169-3.675c-2.139-2.024-3.691-4.829-4.622-8.339
						c-0.569-2.15-0.726-4.307-0.466-6.397c0.265-2.136,0.991-4.125,2.171-5.901c1.18-1.786,2.871-3.387,5.024-4.757
						c2.173-1.379,4.85-2.404,7.96-3.044c2.684-0.552,5.285-0.666,7.697-0.324c2.384,0.344,4.52,1.017,6.351,2.001
						c1.831,0.992,3.318,2.224,4.419,3.662c1.106,1.433,1.8,3.02,2.06,4.717l0.691,4.566l-0.619,0.094
						c-3.377,0.509-6.801,1.077-10.172,1.699l-0.616,0.113l-0.443-2.422c-0.317-1.71-1.083-3.043-2.338-4.071
						c-1.225-0.996-3.106-1.246-5.53-0.751c-1.323,0.274-2.38,0.7-3.135,1.262c-0.735,0.551-1.267,1.172-1.58,1.838
						c-0.314,0.683-0.479,1.436-0.479,2.231c-0.002,0.854,0.1,1.734,0.308,2.612c0.251,1.093,0.501,1.961,0.761,2.651
						c0.24,0.64,0.567,1.139,1.01,1.526c0.446,0.395,1.053,0.706,1.801,0.93c0.781,0.234,1.838,0.421,3.228,0.564
						c2.638,0.268,5.354,0.581,8.079,0.934c2.35,0.275,4.347,0.782,5.925,1.511c1.576,0.718,2.88,1.696,3.871,2.896
						c0.972,1.177,1.729,2.605,2.248,4.244c0.499,1.583,0.917,3.441,1.233,5.527c0.361,2.369,0.423,4.682,0.188,6.875
						c-0.239,2.18-0.876,4.155-1.896,5.877c-1.019,1.711-2.499,3.21-4.405,4.452c-1.895,1.239-4.25,2.136-7.197,2.743
						C274.524,175.584,273.126,175.729,271.775,175.729z M257.296,162.69l0.621,2.331c0.463,1.732,1.283,3.281,2.441,4.604
						c1.15,1.32,2.523,2.39,4.076,3.181c1.547,0.786,3.31,1.308,5.242,1.548c1.931,0.235,3.938,0.143,5.999-0.288
						c2.754-0.568,5.031-1.434,6.767-2.569c1.744-1.14,3.093-2.499,4.014-4.043c0.928-1.567,1.511-3.375,1.728-5.372
						c0.226-2.085,0.165-4.292-0.181-6.554c-0.309-2.021-0.706-3.817-1.189-5.338c-0.47-1.485-1.149-2.772-2.021-3.824
						c-0.869-1.054-2.023-1.913-3.426-2.555c-1.463-0.676-3.333-1.149-5.559-1.411c-2.718-0.35-5.426-0.661-8.056-0.926
						c-1.469-0.154-2.601-0.354-3.457-0.613c-0.922-0.274-1.686-0.672-2.27-1.187c-0.596-0.529-1.039-1.19-1.353-2.028
						c-0.278-0.741-0.543-1.655-0.812-2.806c-0.223-0.973-0.34-1.948-0.337-2.898c0-0.979,0.205-1.908,0.601-2.757
						c0.399-0.855,1.062-1.634,1.962-2.31c0.902-0.673,2.125-1.173,3.63-1.483c2.82-0.582,5.045-0.242,6.573,1.005
						c1.474,1.206,2.407,2.825,2.776,4.813l0.221,1.193c2.979-0.542,5.994-1.044,8.98-1.501l-0.51-3.33
						c-0.226-1.484-0.835-2.875-1.811-4.144c-0.998-1.3-2.35-2.419-4.022-3.323c-1.7-0.912-3.694-1.539-5.932-1.862
						c-2.266-0.319-4.724-0.21-7.271,0.312c-2.96,0.608-5.497,1.574-7.542,2.873c-2.004,1.275-3.568,2.751-4.652,4.388
						c-1.068,1.618-1.732,3.422-1.97,5.368c-0.241,1.936-0.095,3.929,0.434,5.926c0.867,3.283,2.307,5.89,4.269,7.751
						c1.9,1.797,4.987,2.89,9.438,3.342c2.485,0.253,4.987,0.542,7.437,0.856c1.337,0.185,2.384,0.392,3.209,0.628
						c0.882,0.249,1.633,0.666,2.228,1.239c0.581,0.564,1.046,1.368,1.379,2.385c0.312,0.953,0.606,2.184,0.877,3.658
						c0.234,1.279,0.393,2.478,0.463,3.563c0.078,1.163-0.062,2.192-0.414,3.063c-0.359,0.9-0.991,1.677-1.878,2.299
						c-0.86,0.615-2.081,1.076-3.737,1.42c-2.504,0.52-4.453,0.257-5.843-0.796c-1.37-1.032-2.254-2.362-2.623-3.948l-0.438-1.88
						C262.688,161.312,259.98,161.984,257.296,162.69z"/>
				</g>
				<g>
					<path fill="#FF5959" d="M291.615,127.518c-0.292-2.271-0.044-4.343,0.772-6.214c0.813-1.876,2.01-3.476,3.598-4.806
						c1.582-1.33,3.426-2.388,5.52-3.176c2.094-0.785,4.247-1.256,6.44-1.419c2.192-0.162,4.394-0.012,6.58,0.452
						c2.187,0.466,4.164,1.243,5.927,2.323c1.758,1.079,3.186,2.488,4.269,4.222c1.083,1.727,1.64,3.741,1.687,6.03
						c0.213,10.006,0.424,20.015,0.633,30.021c0.048,2.344-0.371,4.393-1.232,6.139c-0.859,1.755-2.002,3.224-3.413,4.424
						c-1.417,1.203-3,2.133-4.763,2.82c-1.765,0.685-3.548,1.092-5.367,1.229c-1.816,0.134-3.645-0.006-5.49-0.422
						c-1.849-0.414-3.557-1.108-5.133-2.083c-1.578-0.981-2.926-2.263-4.041-3.868c-1.111-1.607-1.832-3.566-2.134-5.891
						C294.185,147.37,292.901,137.446,291.615,127.518z M304.86,156.245c0.188,1.96,0.954,3.343,2.282,4.163
						c1.323,0.816,2.823,1.155,4.515,1.029c1.688-0.123,3.124-0.684,4.308-1.689c1.186-0.999,1.743-2.483,1.64-4.449
						c-0.533-9.995-1.064-19.99-1.597-29.986c-0.105-1.966-0.882-3.38-2.346-4.226c-1.463-0.848-3.175-1.205-5.108-1.062
						c-1.933,0.146-3.573,0.754-4.895,1.802c-1.325,1.055-1.885,2.573-1.693,4.529C302.932,136.318,303.896,146.283,304.86,156.245z
						"/>
					<path fill="#FF5959" d="M310.928,170.234c-1.417,0-2.86-0.16-4.292-0.485c-1.903-0.426-3.695-1.152-5.324-2.16
						c-1.649-1.022-3.07-2.384-4.223-4.044c-1.178-1.695-1.927-3.771-2.244-6.166l-3.849-29.78c-0.31-2.396-0.034-4.599,0.818-6.548
						c0.851-1.956,2.119-3.646,3.77-5.032c1.632-1.37,3.55-2.475,5.7-3.28c2.135-0.802,4.359-1.291,6.613-1.459
						c2.252-0.165,4.52-0.008,6.757,0.465c2.238,0.477,4.296,1.284,6.123,2.4c1.837,1.125,3.341,2.611,4.474,4.424
						c1.133,1.81,1.734,3.945,1.781,6.35l0.634,30.019c0.048,2.422-0.388,4.582-1.3,6.431c-0.887,1.811-2.09,3.368-3.567,4.623
						c-1.444,1.228-3.106,2.212-4.94,2.925c-1.807,0.701-3.673,1.128-5.549,1.271C311.851,170.22,311.39,170.234,310.928,170.234z
						 M309.642,112.467c-0.551,0-1.102,0.02-1.651,0.059c-2.134,0.159-4.244,0.625-6.266,1.383c-2.021,0.758-3.815,1.789-5.34,3.068
						c-1.497,1.258-2.65,2.799-3.424,4.573c-0.762,1.742-1.004,3.722-0.726,5.886l3.853,29.781c0.284,2.195,0.966,4.087,2.026,5.615
						c1.054,1.518,2.354,2.761,3.857,3.694c1.508,0.936,3.172,1.608,4.938,2.005c1.776,0.399,3.552,0.535,5.311,0.406
						c1.748-0.131,3.494-0.531,5.186-1.186c1.702-0.664,3.243-1.577,4.583-2.714c1.349-1.146,2.444-2.564,3.259-4.224
						c0.819-1.664,1.212-3.635,1.167-5.852l-0.631-30.021c-0.046-2.174-0.581-4.094-1.595-5.71c-1.028-1.646-2.393-3-4.063-4.021
						c-1.706-1.044-3.634-1.799-5.731-2.243C312.823,112.636,311.225,112.467,309.642,112.467z M310.985,162.088
						c-1.533,0-2.936-0.387-4.171-1.148c-1.501-0.924-2.37-2.483-2.577-4.637l-2.893-29.886c-0.211-2.184,0.434-3.892,1.926-5.076
						c1.423-1.134,3.188-1.786,5.236-1.939c2.061-0.153,3.895,0.232,5.467,1.144c1.649,0.955,2.544,2.548,2.657,4.735l1.596,29.985
						c0.114,2.153-0.511,3.824-1.857,4.961c-1.279,1.085-2.851,1.703-4.667,1.837C311.459,162.079,311.221,162.088,310.985,162.088z
						 M309.375,120.618c-0.255,0-0.512,0.012-0.775,0.031c-1.798,0.133-3.326,0.694-4.551,1.669c-1.155,0.919-1.632,2.219-1.46,3.98
						l2.895,29.889c0.17,1.763,0.818,2.971,1.984,3.687c1.219,0.751,2.573,1.057,4.142,0.94c1.571-0.115,2.863-0.621,3.954-1.542
						c1.047-0.883,1.508-2.174,1.415-3.941l-1.593-29.984c-0.094-1.765-0.761-2.982-2.036-3.72
						C312.193,120.96,310.855,120.618,309.375,120.618z"/>
				</g>
				<g>
					<path fill="#FF5959" d="M355.423,112.165c5.339,0.349,10.668,0.821,15.984,1.419c6.133,0.693,10.639,2.659,13.426,5.706
						c2.793,3.047,3.735,6.88,2.953,11.443c-1.496,8.737-2.99,17.478-4.485,26.215c-0.902,5.247-3.034,8.861-6.283,10.917
						c-3.263,2.058-7.492,2.717-12.82,2.131c-4.158-0.456-8.328-0.82-12.505-1.09C352.938,149.99,354.181,131.079,355.423,112.165z
						 M361.428,162.004c1.415,0.137,2.832,0.285,4.247,0.445c2.588,0.292,4.49-0.041,5.728-1.035
						c1.236-0.993,2.032-2.691,2.37-5.123c1.25-9.043,2.5-18.088,3.75-27.135c0.307-2.209-0.029-4.007-1.031-5.372
						c-1.002-1.37-3.056-2.253-6.156-2.603c-1.617-0.182-3.234-0.351-4.856-0.508C364.129,134.446,362.778,148.227,361.428,162.004z
						"/>
					<path fill="#FF5959" d="M367.729,170.828c-1.129,0-2.342-0.07-3.598-0.208c-4.136-0.456-8.337-0.823-12.478-1.092l-0.623-0.04
						l3.811-57.988l0.624,0.041c5.352,0.349,10.738,0.827,16.013,1.422c6.225,0.701,10.875,2.687,13.817,5.905
						c2.884,3.151,3.93,7.176,3.106,11.973l-4.485,26.214c-0.92,5.354-3.127,9.167-6.563,11.34
						C374.756,170.032,371.607,170.828,367.729,170.828z M352.356,168.321c3.96,0.269,7.962,0.62,11.91,1.054
						c5.278,0.579,9.314-0.083,12.418-2.04c3.124-1.972,5.144-5.505,6-10.492l4.485-26.213c0.764-4.455-0.153-8.026-2.799-10.918
						c-2.731-2.989-7.114-4.841-13.032-5.507c-5.052-0.567-10.207-1.031-15.334-1.375L352.356,168.321z M367.369,163.175
						L367.369,163.175c-0.548,0-1.142-0.037-1.765-0.106c-1.411-0.158-2.825-0.309-4.237-0.443l-0.622-0.061l4.173-42.575l0.62,0.06
						c1.624,0.159,3.246,0.33,4.867,0.51c3.256,0.369,5.476,1.328,6.592,2.854c1.089,1.491,1.475,3.451,1.144,5.829l-3.747,27.139
						c-0.361,2.57-1.234,4.425-2.602,5.52C370.727,162.758,369.278,163.175,367.369,163.175z M362.109,161.442
						c1.215,0.12,2.425,0.247,3.635,0.385c2.415,0.276,4.183-0.031,5.269-0.899c1.107-0.891,1.825-2.476,2.141-4.721l3.751-27.134
						c0.282-2.048-0.025-3.703-0.917-4.921c-0.899-1.233-2.824-2.023-5.722-2.35c-1.409-0.16-2.815-0.308-4.224-0.449
						L362.109,161.442z"/>
				</g>
				<g>
					<path fill="#FF5959" d="M400.317,118.111c10.589,2.128,21.096,4.768,31.478,7.914c-0.744,2.445-1.489,4.891-2.233,7.337
						c-6.742-2.045-13.537-3.869-20.377-5.474c-1.279,5.417-2.559,10.83-3.838,16.247c5.659,1.327,11.283,2.813,16.873,4.458
						c-0.724,2.451-1.449,4.9-2.175,7.354c-5.45-1.604-10.942-3.054-16.459-4.349c-1.278,5.416-2.557,10.829-3.836,16.247
						c5.987,1.408,11.94,3.004,17.843,4.793c-0.789,2.599-1.584,5.198-2.374,7.795c-8.635-2.618-17.374-4.813-26.182-6.582
						C392.796,155.271,396.56,136.691,400.317,118.111z"/>
					<path fill="#FF5959" d="M415.636,181.213l-0.598-0.181c-8.55-2.595-17.34-4.803-26.125-6.568l-0.612-0.125l11.528-56.964
						l0.611,0.126c10.595,2.127,21.205,4.794,31.536,7.927l0.599,0.181l-2.599,8.532l-0.598-0.183
						c-6.493-1.968-13.129-3.759-19.728-5.317l-3.551,15.03c5.45,1.289,10.928,2.743,16.296,4.323l0.599,0.174l-2.527,8.554
						l-0.601-0.175c-5.22-1.537-10.538-2.944-15.817-4.195l-3.548,15.029c5.793,1.373,11.602,2.938,17.272,4.657l0.6,0.185
						L415.636,181.213z M389.775,173.361c8.415,1.711,16.827,3.828,25.028,6.292l2.011-6.597c-5.656-1.701-11.44-3.248-17.207-4.603
						l-0.611-0.145l4.124-17.461l0.608,0.143c5.302,1.243,10.644,2.646,15.895,4.182l1.819-6.157
						c-5.354-1.562-10.812-2.998-16.237-4.272l-0.608-0.143l4.123-17.464l0.607,0.143c6.625,1.557,13.289,3.338,19.817,5.305
						l1.87-6.143c-9.905-2.983-20.063-5.537-30.209-7.594L389.775,173.361z"/>
				</g>
				<g>
					<path fill="#FF5959" d="M438.541,128.148c3.464,1.13,6.913,2.316,10.349,3.564c-5.553,15.262-11.111,30.528-16.663,45.792
						c5.819,2.11,11.583,4.414,17.284,6.911c-1.089,2.485-2.183,4.974-3.273,7.463c-8.335-3.65-16.817-6.876-25.405-9.678
						C426.734,164.183,432.637,146.164,438.541,128.148z"/>
					<path fill="#FF5959" d="M446.559,192.703l-0.57-0.252c-8.249-3.611-16.78-6.862-25.352-9.658l-0.598-0.193l18.104-55.238
						l0.592,0.192c3.459,1.13,6.946,2.331,10.367,3.57l0.586,0.214l-16.661,45.794c5.617,2.052,11.247,4.307,16.735,6.71l0.574,0.25
						L446.559,192.703z M421.619,181.803c8.211,2.697,16.381,5.81,24.296,9.253l2.771-6.319c-5.473-2.381-11.081-4.618-16.674-6.645
						l-0.589-0.213l16.663-45.794c-3.021-1.092-6.094-2.147-9.146-3.149L421.619,181.803z"/>
				</g>
				<g>
					<path fill="#FF5959" d="M493.636,151.746c4.886,2.637,9.721,5.396,14.502,8.287c2.624,1.59,4.765,3.278,6.42,5.032
						c1.656,1.751,2.862,3.782,3.607,6.071c0.746,2.293,0.84,4.463,0.306,6.517c-0.534,2.055-1.773,4.482-3.702,7.293
						c-1.418,2.062-2.788,3.723-4.103,4.982c-1.319,1.258-2.914,2.185-4.78,2.79c-2.213,0.76-4.564,0.932-7.07,0.547
						c-2.508-0.385-5.33-1.564-8.525-3.503c-1.457-0.88-2.921-1.751-4.391-2.606c-3.723,6.398-7.447,12.798-11.17,19.197
						c-2.67-1.559-5.36-3.064-8.07-4.526C475.649,185.135,484.643,168.442,493.636,151.746z M489.759,180.527
						c1.418,0.826,2.833,1.666,4.242,2.516c1.78,1.078,3.278,1.726,4.506,1.928c1.226,0.199,2.286,0.107,3.191-0.302
						c0.901-0.401,1.714-1.067,2.431-2c0.718-0.93,1.47-1.996,2.244-3.212c0.721-1.119,1.354-2.214,1.915-3.281
						c0.555-1.064,0.849-2.11,0.871-3.136c0.024-1.025-0.316-2.063-1.012-3.102c-0.697-1.032-1.964-2.12-3.793-3.229
						c-1.619-0.979-3.241-1.945-4.871-2.894C496.242,169.386,492.999,174.956,489.759,180.527z"/>
					<path fill="#FF5959" d="M474.955,207.208l-0.54-0.316c-2.648-1.542-5.359-3.062-8.053-4.515l-0.549-0.294l0.296-0.55
						l27.271-50.635l0.553,0.299c4.882,2.63,9.771,5.423,14.528,8.303c2.63,1.589,4.831,3.317,6.552,5.133
						c1.715,1.815,2.973,3.937,3.746,6.31c0.778,2.382,0.884,4.693,0.32,6.868c-0.558,2.132-1.797,4.582-3.793,7.491
						c-1.432,2.081-2.839,3.789-4.189,5.079c-1.377,1.317-3.066,2.301-5.02,2.932c-2.262,0.781-4.74,0.976-7.356,0.57
						c-2.56-0.393-5.422-1.566-8.753-3.583c-1.275-0.772-2.557-1.535-3.841-2.289L474.955,207.208z M467.505,201.574
						c2.341,1.27,4.689,2.587,6.998,3.924l11.171-19.197l0.54,0.316c1.475,0.856,2.94,1.728,4.4,2.614
						c3.188,1.929,5.904,3.044,8.297,3.415c2.413,0.374,4.685,0.199,6.773-0.521c1.781-0.573,3.309-1.464,4.552-2.648
						c1.284-1.231,2.636-2.874,4.017-4.886c1.889-2.745,3.102-5.134,3.613-7.097c0.505-1.939,0.405-4.015-0.295-6.165
						c-0.717-2.193-1.881-4.157-3.469-5.836c-1.643-1.735-3.757-3.391-6.288-4.922c-4.563-2.761-9.245-5.442-13.925-7.978
						L467.505,201.574z M499.689,185.697c-0.404,0-0.835-0.036-1.284-0.111c-1.3-0.212-2.846-0.869-4.727-2.006
						c-1.408-0.852-2.818-1.688-4.234-2.513l-0.54-0.313l10.354-17.793l0.538,0.315c1.635,0.95,3.262,1.917,4.883,2.898
						c1.89,1.146,3.231,2.294,3.987,3.417c0.771,1.146,1.145,2.311,1.118,3.46c-0.026,1.116-0.341,2.265-0.946,3.416
						c-0.592,1.131-1.244,2.253-1.94,3.331c-0.743,1.163-1.507,2.259-2.273,3.251c-0.775,1.011-1.675,1.746-2.672,2.193
						C501.282,185.543,500.521,185.697,499.689,185.697z M490.612,180.304c1.241,0.726,2.479,1.46,3.712,2.208
						c1.719,1.037,3.16,1.657,4.283,1.844c1.123,0.181,2.051,0.099,2.833-0.255c0.807-0.361,1.543-0.97,2.191-1.812
						c0.745-0.965,1.488-2.03,2.214-3.166c0.675-1.05,1.309-2.139,1.888-3.236c0.513-0.978,0.781-1.939,0.799-2.861
						c0.021-0.889-0.28-1.811-0.902-2.737c-0.653-0.971-1.864-1.991-3.601-3.044c-1.434-0.868-2.875-1.727-4.321-2.574
						L490.612,180.304z"/>
				</g>
				<g>
					<path fill="#FF5959" d="M538.216,180.549c2.503,1.917,4.989,3.871,7.45,5.867c-7.303,18.483-15.456,36.479-24.429,53.914
						c-2.373-2.142-4.775-4.232-7.203-6.277c1.905-3.724,3.775-7.467,5.612-11.233c-3.475-2.869-7.001-5.646-10.575-8.327
						c-3.212,2.682-6.394,5.393-9.546,8.13c-2.528-1.856-5.081-3.667-7.659-5.432C506.572,204.282,522.036,192.046,538.216,180.549z
						 M531.89,196.371c-0.053-0.042-0.11-0.088-0.167-0.132c-5.627,4.312-11.175,8.709-16.638,13.186
						c2.684,2.039,5.342,4.129,7.967,6.268C526.096,209.312,529.042,202.871,531.89,196.371z"/>
					<path fill="#FF5959" d="M521.424,241.34l-0.604-0.545c-2.354-2.121-4.77-4.229-7.188-6.266l-0.381-0.321l0.227-0.438
						c1.835-3.589,3.648-7.212,5.391-10.781c-3.2-2.634-6.484-5.222-9.777-7.7c-3.038,2.542-6.119,5.169-9.157,7.809l-0.378,0.328
						l-0.4-0.295c-2.536-1.866-5.109-3.691-7.641-5.423l-0.666-0.454l0.606-0.53c14.737-12.936,30.349-25.279,46.396-36.683
						l0.376-0.267l0.366,0.28c2.507,1.915,5.019,3.892,7.467,5.876l0.355,0.292l-0.169,0.425
						c-7.274,18.415-15.502,36.573-24.452,53.971L521.424,241.34z M514.814,233.894c2.097,1.771,4.189,3.592,6.237,5.43
						c8.72-17.006,16.746-34.734,23.863-52.71c-2.205-1.785-4.461-3.559-6.713-5.289c-15.666,11.152-30.905,23.192-45.317,35.807
						c2.194,1.514,4.413,3.087,6.605,4.695c3.052-2.646,6.136-5.273,9.181-7.814l0.381-0.318l0.395,0.297
						c3.568,2.679,7.134,5.489,10.599,8.347l0.378,0.313l-0.213,0.443C518.466,226.664,516.653,230.297,514.814,233.894z
						 M523.275,216.682l-0.618-0.502c-2.591-2.113-5.264-4.219-7.949-6.257l-0.629-0.48l0.611-0.501
						c5.478-4.489,11.081-8.928,16.653-13.197l0.383-0.297l0.847,0.666l-0.108,0.511c-2.853,6.498-5.827,13.006-8.849,19.34
						L523.275,216.682z M516.094,209.407c2.271,1.733,4.533,3.51,6.735,5.299c2.613-5.495,5.188-11.114,7.678-16.744
						C525.682,201.686,520.843,205.53,516.094,209.407z"/>
				</g>
				<g>
					<path fill="#FF5959" d="M544.056,228.724c4.096-11.23,7.76-22.72,10.977-34.433c3.056,2.666,6.074,5.397,9.054,8.188
						c-2.881,7.629-5.937,15.149-9.164,22.559c0.052,0.05,0.103,0.099,0.151,0.152c7.367-3.31,14.859-6.435,22.472-9.369
						c2.856,2.992,5.671,6.048,8.442,9.169c-11.771,3.219-23.269,6.939-34.462,11.133c-5.729,5.603-11.46,11.204-17.19,16.803
						c-2.263-2.319-4.56-4.594-6.88-6.816C532.986,240.314,538.522,234.516,544.056,228.724z"/>
					<path fill="#FF5959" d="M534.325,253.812l-0.437-0.449c-2.251-2.302-4.562-4.593-6.867-6.799l-0.45-0.435l16.943-17.743
						c4.059-11.144,7.732-22.671,10.914-34.261l0.263-0.962l0.751,0.657c3.059,2.668,6.108,5.428,9.07,8.205l0.308,0.285
						l-0.149,0.391c-2.701,7.156-5.609,14.342-8.651,21.379c7.001-3.116,14.16-6.089,21.301-8.841l0.388-0.151l0.288,0.303
						c2.833,2.964,5.678,6.055,8.46,9.184l0.669,0.751l-0.972,0.269c-11.579,3.164-23.115,6.891-34.287,11.068L534.325,253.812z
						 M528.338,246.09c2.019,1.942,4.034,3.94,6.007,5.952l16.959-16.505c10.934-4.093,22.217-7.751,33.549-10.884
						c-2.463-2.754-4.971-5.473-7.473-8.099c-7.396,2.859-14.815,5.954-22.05,9.204l-0.399,0.178l-0.755-0.746l0.173-0.401
						c3.167-7.275,6.195-14.723,9.006-22.14c-2.612-2.441-5.293-4.869-7.985-7.23c-3.144,11.34-6.748,22.614-10.729,33.517
						l-0.134,0.217L528.338,246.09z"/>
				</g>
			</g>
		</g>
	</g>
</g>
<g id="Layer_3">
</g>
</svg>
