<?xml version="1.0" encoding="utf-8"?>
<!-- Generator: Adobe Illustrator 16.0.4, SVG Export Plug-In . SVG Version: 6.00 Build 0)  -->
<!DOCTYPE svg PUBLIC "-//W3C//DTD SVG 1.1//EN" "http://www.w3.org/Graphics/SVG/1.1/DTD/svg11.dtd">
<svg version="1.1" xmlns="http://www.w3.org/2000/svg" xmlns:xlink="http://www.w3.org/1999/xlink" x="0px" y="0px"
	 width="663.066px" height="263.013px" viewBox="0 0 663.066 263.013" enable-background="new 0 0 663.066 263.013"
	 xml:space="preserve">
<g id="Layer_5" display="none">
	<g display="inline">
		<defs>
			<rect id="SVGID_3_" x="-997.934" y="-1483" width="1133" height="1115"/>
		</defs>
		<clipPath id="SVGID_2_">
			<use xlink:href="#SVGID_3_"  overflow="visible"/>
		</clipPath>
		<g id="OImYb4_1_" clip-path="url(#SVGID_2_)">
			
				<image overflow="visible" width="1329" height="1920" id="OImYb4_2_" xlink:href="4E19C947CE38F1E3.jpg"  transform="matrix(0.8525 0 0 0.8525 -980.9277 -1473.4995)">
			</image>
		</g>
	</g>
</g>
<g id="Layer_4">
</g>
<g id="Layer_1">
</g>
<g id="Layer_2">
	<path fill="#EE364B" d="M532.883,86.764c0.063,0.007,0.121,0.02,0.17,0.045c-0.503,2.594-2.262,5.582-5.22,8.886
		c-2.871,3.229-5.488,5.132-7.787,5.672c0.538-1.433,1.694-3.399,3.438-5.864c2.119-2.966,4.193-5.321,6.146-6.996
		c1.732-1.465,2.668-1.761,3.141-1.752C532.81,86.756,532.847,86.758,532.883,86.764z M515.051,132.888
		c0.072-0.217,0.139-0.433,0.193-0.653c0.25-1.039,0.214-2.036-0.109-2.961c-0.432-1.253-1.276-2.104-2.581-2.603
		c-0.161-0.062-0.323-0.114-0.471-0.148c-0.818-0.2-1.517-0.021-2.137,0.546c-0.669,0.61-1.171,1.588-1.489,2.899
		c-0.705,2.918-0.474,5.128,0.681,6.573c0.169,0.04,0.336,0.068,0.497,0.09l0,0c1.161,0.152,2.195-0.091,3.161-0.744
		C513.84,135.197,514.596,134.184,515.051,132.888z M619.191,121.49c-0.576,5.486-1.12,10.671-1.47,15.604
		c-0.104,1.548-0.203,3.414-0.315,5.579c-0.905,17.586-2.601,50.321-18.109,56.732c-5.667,2.35-11.783,3.425-18.699,3.285
		c-11.644-0.236-23.471-3.906-34.912-7.452c-6.441-1.999-12.522-3.886-18.374-5.113c-0.107-0.025-0.215-0.057-0.313-0.082
		c-5.23,13.688-11.309,25.406-18.096,34.852c-1.271,1.78-3.029,2.743-4.949,2.705c-2.829-0.058-5.327-2.294-6.076-5.433
		c-2.02-8.492-2.305-17.375-2.581-25.961l-0.071-2.271c-0.074-2.221-0.388-4.752-0.718-7.43c-0.208-1.662-0.419-3.369-0.581-5.069
		c-6.214-1.271-13.645-1.599-21.511-1.942c-17.497-0.774-37.333-1.645-48.918-13.841c-14.06-14.76-7.809-57.082-4.075-82.37
		c0.705-4.776,1.313-8.902,1.688-12.142c0.176-1.501,0.331-3.261,0.5-5.125c1.205-13.56,3.225-36.247,19.929-35.909l0.145,0.003
		c35.66,1.002,72.022,4.111,107.188,7.117c6.301,0.538,12.597,1.077,18.881,1.604c0.883,0.075,1.793,0.146,2.734,0.221
		c15.144,1.212,38.034,3.048,45.639,20.812C623.804,77.716,621.355,100.972,619.191,121.49z M554.772,101.234
		c2.655,9.493,7.319,15.58,13.866,18.096c0.644,0.247,1.313,0.467,1.99,0.646c0.71,0.187,1.439,0.341,2.224,0.46
		c4.192,0.128,8.915-1.138,14.024-3.76c5.26-2.727,1.457-10.026-3.641-7.276c-3.68,2.014-6.93,2.832-9.652,2.42
		c-0.646-0.099-1.25-0.258-1.805-0.471c-1.917-0.737-3.332-2.216-4.193-4.397c-0.496-1.253-0.504-1.854-0.435-2.11l0.022-0.066
		c0.041-0.096,0.156-0.389,0.785-0.465c0.22-0.01,0.902-0.001,2.018,0.026c1.027,0.029,1.897-0.033,2.579-0.185
		c4.155-0.894,6.957-3.15,8.321-6.711c0.462-1.193,0.766-2.562,0.912-4.133c-0.294-3.571-1.193-6.556-2.666-8.874
		c-1.315-2.063-3.053-3.518-5.16-4.327c-0.768-0.299-1.597-0.509-2.455-0.632c-6.274-0.938-10.558,0.514-12.725,4.326
		c-1.174,2.06-2.129,4.042-2.838,5.887C554.258,94.087,553.859,97.971,554.772,101.234z M528.701,72.899
		c0.486,0.539,1.04,0.853,1.634,0.927c0.082,0.011,0.165,0.017,0.249,0.018c0.494,0.011,0.923-0.148,1.271-0.473
		c3.111-1.893,2.945-1.96,7.939-6.516c0.176-0.166,0.533-0.442,1.072-0.828c1.277-0.929,2.137-1.688,2.628-2.328
		c0.403-0.549,0.648-1.101,0.715-1.645c0.085-0.641-0.059-1.279-0.416-1.895c-0.284-0.492-0.574-0.901-0.862-1.213
		c-0.538-0.58-1.137-0.918-1.779-0.998c-0.678-0.086-1.658,0.209-3.004,0.918l-0.135,0.081c-2.934,1.684-5.398,3.399-7.719,5.757
		l-0.153,0.161c-1.678,1.74-2.593,3.191-2.788,4.439l-0.017,0.105C527.192,70.575,527.649,71.749,528.701,72.899z M449.744,60.39
		c0.754,0.099,1.588,0.168,2.46,0.215c1.24,0.071,3.184,0.11,5.782,0.121c1.878,0.013,3.188,0.063,3.843,0.145l0.128,0.017
		c2.148,0.326,3.012,0.51,3.332,0.599c1.185,0.372,1.594,0.765,1.575,0.91c-0.905,6.275-1.628,11.538-2.154,15.642
		c-0.231,1.805-0.412,3.317-0.555,4.624c-1.084,9.495-1.53,17.132-1.339,22.692c0.127,4.427,0.171,4.644,0.197,4.751
		c0.477,3.095,1.977,3.92,3.154,4.071l0.227,0.024c0.199,0.013,0.397,0.021,0.585,0.025c2.331,0.048,4.044-0.549,5.103-1.782
		c0.857-1.026,1.424-2.616,1.692-4.729l0.095-0.767c0.061-0.629,0.114-1.585,0.166-2.856c0.024-1.403,0.074-2.058,0.118-2.386
		c0.246-2.445,0.834-9.445,1.744-20.802l0.001-0.056v-0.035c0.003-0.097,0.031-0.721,0.255-4.382
		c0.125-2.145,0.27-3.966,0.436-5.407l0.03-0.25c0.658-5.17,1.763-7.342,2.572-8.255c0.002-0.002,0.353-0.336,2.017-0.304
		c0.573,0.012,1.247,0.065,1.999,0.159c0.484,0.064,1.537,0.23,3.129,0.495c0.602,0.1,1.099,0.175,1.488,0.224
		c0.429,0.054,0.729,0.08,1.009,0.085c0,0,0.001,0.001,0.005,0.002c3.305-0.013,5.778-0.17,7.345-0.455
		c3.235-0.573,5.626-1.816,7.104-3.693c0.495-0.62,0.791-1.268,0.875-1.932c0.163-1.291-0.44-2.517-1.792-3.648
		c-1.427-1.203-2.962-1.916-4.587-2.127c-3.955-0.394-10.478-0.759-19.39-1.084c-8.285-0.314-14.745-0.728-19.201-1.233
		c-3.778-0.436-7.272-0.432-10.32,0.015c-4.24,0.646-6.545,2.225-6.862,4.684c-0.124,0.983,0.083,2.058,0.618,3.196
		C443.496,58.753,445.821,59.891,449.744,60.39z M494.544,151.543l-0.019-0.056c-0.575-1.672-1.337-4.797-2.27-9.285
		c-1.083-5.216-1.965-9.033-2.611-11.355c-2.58-9.259-6.25-14.454-10.902-15.436l-0.091-0.021l-0.087,0.036
		c-2.26,0.909-4.179,3.741-5.861,8.658c-1.845,5.406-3.072,8.9-3.674,10.432c-0.252-1.086-0.769-3.475-1.829-8.599
		c-1.022-4.944-2.273-7.848-3.833-8.88c-1.099-0.721-2.174-1.109-3.193-1.159c-1.23-0.065-2.422,0.361-3.541,1.259
		c-0.582,0.477-1.435,1.343-2.545,2.574c-1.078,1.214-3.598,2.899-5.729,7.042c-2.869,5.573-5.242,17.095-5.392,20.207
		c-0.102,2.043-0.19,2.809-0.245,3.097l-0.027,0.552c1.365,1.148,2.68,1.761,3.905,1.819c0.89,0.044,1.751-0.21,2.57-0.754
		c1.439-0.98,2.836-3.09,4.148-6.269c4.431-10.621,5.633-13.601,5.962-14.486c0.246,0.236,0.658,0.976,1.001,3.291
		c0.019,0.205,0.129,1.271,0.894,7.865c0.887,7.782,2.484,11.622,4.881,11.74l0.086,0.004c2.918,0.018,5.644-2.822,8.279-8.681
		c0.822-1.808,1.717-4.133,2.662-6.905c0.875-2.583,1.324-3.916,1.557-4.609c0.788,1.707,1.584,4.425,2.369,8.104
		c0.848,4.07,1.865,7.05,3.027,8.862c1.068,1.669,2.95,2.962,5.598,3.845c0.694,0.23,1.329,0.358,1.877,0.388
		c0.15,0.008,0.297,0.007,0.436-0.002c1.113-0.063,2.473-0.673,2.594-3.218L494.544,151.543z M504.574,86.223
		c3.733-3.812,8.209-6.672,13.294-8.497l0.119-0.044l0.054-0.113c0.144-0.301,0.236-0.6,0.275-0.887
		c0.144-1.131-0.379-2.282-1.553-3.422c-1.281-1.227-2.626-1.936-4.001-2.111l-0.071-0.008c-3.779-0.484-8.025,1.266-12.603,5.194
		c-3.44,2.96-5.96,5.963-7.498,8.95c0.106-5.124-0.967-8.632-3.199-10.44c-0.544-0.434-1.12-0.691-1.716-0.764
		c-0.547-0.071-1.112,0.03-1.688,0.306c-1.14,0.613-2.078,1.892-2.789,3.803l-0.018,0.068c-0.594,4.678-0.668,9.618-0.219,14.688
		c0.555,6.384,1.918,10.89,4.049,13.394c0.902,1.048,1.799,1.635,2.676,1.746c0.088,0.013,0.18,0.019,0.266,0.02
		c1.932,0.039,3.635-2.104,5.203-6.553C497.288,95.548,500.458,90.392,504.574,86.223z M528.338,146.096
		c-3.389,2.469-6.508,3.699-9.261,3.646c-0.649-0.02-1.272-0.099-1.849-0.236c-1.999-0.485-3.589-1.771-4.729-3.824
		c-0.651-1.177-0.738-1.773-0.703-2.036l0.017-0.07c0.023-0.1,0.101-0.403,0.721-0.559c0.218-0.041,0.894-0.118,2.002-0.232
		c1.023-0.104,1.876-0.276,2.534-0.518c4.008-1.421,6.494-4.021,7.391-7.727c0.301-1.243,0.425-2.644,0.37-4.218
		c-0.755-3.502-2.027-6.349-3.79-8.454c-1.566-1.878-3.478-3.1-5.671-3.631c-0.804-0.193-1.653-0.299-2.518-0.309
		c-6.344-0.12-10.4,1.873-12.066,5.93c-0.894,2.196-1.587,4.282-2.053,6.204c-1.108,4.58-1,8.48,0.325,11.6
		c3.857,9.073,9.266,14.509,16.079,16.16c0.673,0.162,1.362,0.291,2.059,0.385c0.728,0.094,1.475,0.152,2.263,0.172
		c4.18-0.415,8.697-2.278,13.43-5.542C537.754,149.461,533.039,142.715,528.338,146.096z M543.947,115.75
		c0.229,0.028,0.454,0.043,0.684,0.048c1.193,0.024,2.386-0.287,3.549-0.928c1.426-0.769,2.34-1.768,2.733-3.022
		c0.204-1.607-0.396-3.674-1.835-6.326c-0.725-1.313-1.188-2.293-1.383-2.914c-0.447-1.46-0.788-3.854-1.009-7.114
		c-0.067-1.01-0.117-1.635-0.155-1.888c-0.02-0.232-0.035-0.884-0.01-2.659c0.003-4.18-0.169-7.303-0.518-9.288
		c-0.598-3.646-1.88-5.618-3.81-5.864l-0.351-0.046c-4.473-0.573-11.573,2.146-21.183,8.118c-7.755,6.89-12.027,13.103-12.712,18.48
		c-0.196,2.714,0.375,4.99,1.699,6.756c1.355,1.78,3.293,2.842,5.767,3.155c0.842,0.107,1.739,0.122,2.674,0.049
		c3.188-0.273,6.437-1.795,9.66-4.523c1.854-1.584,4.337-4.262,7.382-7.948l0.852-1.012c0.674,1.333,1.282,3.507,1.796,6.469
		c0.782,4.285,1.872,7.29,3.251,8.931C541.764,115.084,542.744,115.596,543.947,115.75z M554.924,152.513
		c0.077-1.595-0.482-3.024-1.67-4.258c-1.317-1.322-3.122-2.05-5.387-2.161c-1.849,0.044-3.388,0.621-4.565,1.76
		c-1.017,0.991-1.622,2.211-1.788,3.644l-0.018,0.356c-0.059,1.189,0.199,2.308,0.775,3.335c0.738,1.266,1.831,2.084,3.247,2.431
		c0.695,0.154,1.39,0.25,2.071,0.284c0.406,0.02,0.812,0.019,1.188-0.005c1.592-0.09,2.946-0.551,4.024-1.375
		C554.124,155.511,554.84,154.166,554.924,152.513z M574.326,153.051c0.08-1.595-0.482-3.023-1.67-4.256
		c-1.315-1.324-3.118-2.051-5.387-2.158c-1.836,0.039-3.388,0.62-4.562,1.755c-1.017,0.994-1.618,2.212-1.788,3.643l-0.018,0.355
		c-0.059,1.191,0.201,2.313,0.774,3.339c0.741,1.263,1.832,2.081,3.25,2.427c0.694,0.155,1.389,0.254,2.07,0.286
		c0.406,0.021,0.812,0.021,1.188-0.004c1.591-0.091,2.944-0.552,4.019-1.377C573.529,156.05,574.244,154.7,574.326,153.051z
		 M593.556,150.507c0.075-1.595-0.482-3.026-1.668-4.261c-1.316-1.319-3.124-2.048-5.392-2.159
		c-1.845,0.043-3.385,0.626-4.559,1.762c-1.018,0.991-1.621,2.213-1.789,3.641l-0.018,0.354c-0.062,1.19,0.198,2.312,0.772,3.34
		c0.739,1.267,1.834,2.083,3.255,2.429c0.691,0.154,1.386,0.252,2.062,0.284c0.412,0.018,0.816,0.021,1.19-0.002
		c1.595-0.091,2.945-0.555,4.022-1.38C592.763,153.506,593.473,152.157,593.556,150.507z M565.912,97.606L565.912,97.606
		c1.128,0.302,2.183,0.193,3.229-0.329c1.121-0.554,2.002-1.456,2.62-2.687c0.1-0.204,0.193-0.413,0.277-0.623
		c0.378-0.998,0.476-1.991,0.271-2.95c-0.265-1.296-0.994-2.247-2.222-2.914c-0.156-0.083-0.304-0.151-0.449-0.207
		c-0.787-0.3-1.503-0.215-2.189,0.269c-0.745,0.52-1.365,1.422-1.852,2.681c-1.075,2.803-1.133,5.026-0.169,6.608
		C565.59,97.514,565.75,97.562,565.912,97.606z"/>
	<g>
		
			<path fill="#EE364B" stroke="#EE364B" stroke-width="7" stroke-linecap="round" stroke-linejoin="round" stroke-miterlimit="10" d="
			M99.172,139.278h-5.539V74.728H68.615v-5.442h55.574v5.442H99.172V139.278z"/>
		
			<path fill="#EE364B" stroke="#EE364B" stroke-width="7" stroke-linecap="round" stroke-linejoin="round" stroke-miterlimit="10" d="
			M135.07,72.34c0-2.005,1.623-3.629,3.629-3.629c1.814,0,3.533,1.624,3.533,3.629c0,1.719-1.719,3.533-3.533,3.533
			C136.693,75.873,135.07,74.059,135.07,72.34z M135.93,139.278V91.533h5.537v47.745H135.93z"/>
		
			<path fill="#EE364B" stroke="#EE364B" stroke-width="7" stroke-linecap="round" stroke-linejoin="round" stroke-miterlimit="10" d="
			M161.439,118.939c0.572,9.549,8.021,14.705,17.666,14.705c3.246,0,7.924-1.051,11.936-3.533l2.578,4.965
			c-4.869,2.865-10.217,4.202-14.801,4.202c-14.42,0-23.109-8.976-23.109-23.3c0-13.846,7.354-25.113,22.441-25.113
			c11.744,0,17.57,7.353,17.57,14.705c0,7.544-6.111,15.184-18.525,15.184C171.943,120.754,166.596,120.085,161.439,118.939z
			 M161.439,113.114c5.252,1.146,10.695,2.101,15.756,2.101c8.594,0,12.891-4.965,12.891-9.74c0-4.583-4.105-9.166-12.127-9.166
			C168.887,96.309,162.584,104.234,161.439,113.114z"/>
		
			<path fill="#EE364B" stroke="#EE364B" stroke-width="7" stroke-linecap="round" stroke-linejoin="round" stroke-miterlimit="10" d="
			M244.389,139.278h-5.443v-29.507c0-7.065-6.016-12.795-13.367-12.795c-7.354,0-13.273,5.729-13.273,12.795l-0.096,29.507h-5.539
			V92.393h5.539v4.488c3.438-3.15,8.309-5.443,13.369-5.443c10.312,0,18.811,8.404,18.811,18.334V139.278z"/>
		
			<path fill="#EE364B" stroke="#EE364B" stroke-width="7" stroke-linecap="round" stroke-linejoin="round" stroke-miterlimit="10" d="
			M297.018,71.004v67.797h-5.633v-3.056c-3.82,2.483-7.83,3.533-12.223,3.533c-12.033,0-22.537-9.645-22.537-21.962v-4.68
			c0-12.318,10.504-21.963,22.537-21.963c4.582,0,8.498,0.955,12.223,3.533V71.004H297.018z M262.26,112.637v4.68
			c0,9.166,7.734,16.424,16.902,16.424c4.582,0,9.07-1.814,12.223-5.061v-27.311c-3.248-3.246-7.736-5.348-12.223-5.348
			C269.898,96.021,262.26,103.47,262.26,112.637z"/>
		
			<path fill="#EE364B" stroke="#EE364B" stroke-width="7" stroke-linecap="round" stroke-linejoin="round" stroke-miterlimit="10" d="
			M353.416,138.896c-7.352,0-10.312-2.961-11.172-6.685c-3.723,4.679-9.357,7.066-15.373,7.066c-9.74,0-19.098-5.156-19.098-16.042
			c0-10.791,10.98-13.178,19.098-13.178c5.252,0,10.121,0.572,15.088,1.719c-0.766-9.167-6.971-14.515-17.094-14.515
			c-3.342,0-7.543,1.051-11.84,3.533l-2.578-4.583c5.061-3.151,10.121-4.297,14.514-4.297c4.201,0,8.213,0.668,11.555,2.578
			c10.695,5.348,11.076,14.991,11.076,23.967c0,1.338-0.096,2.865-0.096,8.309c0,4.583,0.859,6.779,5.92,6.779V138.896z
			 M342.055,117.411c-5.252-1.146-10.791-2.101-15.947-2.101c-6.016,0-13.273,2.196-12.891,8.785
			c0.285,6.779,7.543,9.835,13.654,9.835c7.352,0,15.184-7.065,15.184-14.896V117.411z"/>
	</g>
</g>
<g id="Layer_3">
</g>
</svg>
